<svg width="375" height="342" viewBox="0 0 375 342" fill="none" xmlns="http://www.w3.org/2000/svg">
<path d="M274.335 195.414C274.335 195.414 266.213 202.073 266.092 208.532C265.994 213.787 271.653 222.516 273.303 222.182C273.372 222.178 273.431 222.176 273.48 222.174C273.635 222.169 273.703 222.166 273.747 222.122C273.799 222.071 273.819 221.89 273.835 221.741C273.842 221.68 273.848 221.625 273.855 221.586C274 220.801 274.925 219.709 276.104 218.316C278.465 215.525 281.847 211.529 282.028 206.388C282.248 200.143 274.335 195.414 274.335 195.414Z" fill="#6CBB0D"/>
<path d="M274.335 195.414C274.335 195.414 266.213 202.073 266.092 208.532C265.994 213.787 271.653 222.516 273.303 222.182C273.372 222.178 273.431 222.176 273.48 222.174C273.635 222.169 273.703 222.166 273.747 222.122C273.799 222.071 273.819 221.89 273.835 221.741C273.842 221.68 273.848 221.625 273.855 221.586C274 220.801 274.925 219.709 276.104 218.316C278.465 215.525 281.847 211.529 282.028 206.388C282.248 200.143 274.335 195.414 274.335 195.414Z" stroke="white"/>
<path d="M292.603 157.226C292.603 157.226 276.757 169.008 276.865 179.649C276.952 188.308 288.715 202.101 291.988 201.384C292.127 201.371 292.243 201.361 292.342 201.353C292.649 201.329 292.785 201.318 292.872 201.241C292.973 201.152 293.002 200.851 293.027 200.603C293.036 200.503 293.045 200.412 293.058 200.347C293.306 199.041 295.091 197.149 297.368 194.738C301.929 189.906 308.461 182.987 308.546 174.508C308.648 164.208 292.603 157.226 292.603 157.226Z" fill="#6CBB0D"/>
<path d="M292.603 157.226C292.603 157.226 276.757 169.008 276.865 179.649C276.952 188.308 288.715 202.101 291.988 201.384C292.127 201.371 292.243 201.361 292.342 201.353C292.649 201.329 292.785 201.318 292.872 201.241C292.973 201.152 293.002 200.851 293.027 200.603C293.036 200.503 293.045 200.412 293.058 200.347C293.306 199.041 295.091 197.149 297.368 194.738C301.929 189.906 308.461 182.987 308.546 174.508C308.648 164.208 292.603 157.226 292.603 157.226Z" stroke="white"/>
<path d="M310.46 169.354C310.46 169.354 316.008 185.674 325.78 185.714C333.732 185.747 350.237 173.95 350.662 170.603C350.696 170.461 350.726 170.342 350.751 170.241C350.83 169.928 350.865 169.789 350.823 169.7C350.775 169.595 350.509 169.561 350.291 169.533C350.202 169.522 350.122 169.512 350.066 169.498C348.953 169.227 347.812 167.38 346.357 165.025C343.442 160.307 339.268 153.55 331.538 153.345C322.147 153.096 310.46 169.354 310.46 169.354Z" fill="#6CBB0D"/>
<path d="M310.46 169.354C310.46 169.354 316.008 185.674 325.78 185.714C333.732 185.747 350.237 173.95 350.662 170.603C350.696 170.461 350.726 170.342 350.751 170.241C350.83 169.928 350.865 169.789 350.823 169.7C350.775 169.595 350.509 169.561 350.291 169.533C350.202 169.522 350.122 169.512 350.066 169.498C348.953 169.227 347.812 167.38 346.357 165.025C343.442 160.307 339.268 153.55 331.538 153.345C322.147 153.096 310.46 169.354 310.46 169.354Z" stroke="white"/>
<path d="M271.857 121.333C271.857 121.333 283.537 109.576 282.161 100.677C281.041 93.4354 269.644 83.2867 267.024 84.2773C266.911 84.3051 266.815 84.3268 266.735 84.3453C266.484 84.4027 266.373 84.428 266.31 84.5028C266.237 84.5894 266.249 84.8446 266.259 85.055C266.263 85.1398 266.267 85.2173 266.265 85.2736C266.218 86.3968 264.97 88.1939 263.378 90.4851C260.19 95.0756 255.625 101.65 256.581 108.76C257.742 117.399 271.857 121.333 271.857 121.333Z" fill="#6CBB0D"/>
<path d="M271.857 121.333C271.857 121.333 283.537 109.576 282.161 100.677C281.041 93.4354 269.644 83.2867 267.024 84.2773C266.911 84.3051 266.815 84.3268 266.735 84.3453C266.484 84.4027 266.373 84.428 266.31 84.5028C266.237 84.5894 266.249 84.8446 266.259 85.055C266.263 85.1398 266.267 85.2173 266.265 85.2736C266.218 86.3968 264.97 88.1939 263.378 90.4851C260.19 95.0756 255.625 101.65 256.581 108.76C257.742 117.399 271.857 121.333 271.857 121.333Z" stroke="white"/>
<path d="M299.817 137.242C299.817 137.242 308.147 143.016 314.567 139.65C319.791 136.91 327.223 125.63 326.54 123.904C326.521 123.825 326.507 123.759 326.494 123.702C326.456 123.527 326.439 123.45 326.386 123.422C326.324 123.39 326.14 123.465 325.989 123.528C325.928 123.553 325.872 123.576 325.831 123.589C325.024 123.847 323.744 123.371 322.113 122.764C318.845 121.549 314.166 119.809 309.037 122.39C302.807 125.526 299.817 137.242 299.817 137.242Z" fill="#6CBB0D"/>
<path d="M299.817 137.242C299.817 137.242 308.147 143.016 314.567 139.65C319.791 136.91 327.223 125.63 326.54 123.904C326.521 123.825 326.507 123.759 326.494 123.702C326.456 123.527 326.439 123.45 326.386 123.422C326.324 123.39 326.14 123.465 325.989 123.528C325.928 123.553 325.872 123.576 325.831 123.589C325.024 123.847 323.744 123.371 322.113 122.764C318.845 121.549 314.166 119.809 309.037 122.39C302.807 125.526 299.817 137.242 299.817 137.242Z" stroke="white"/>
<path d="M80.2822 156.327C80.2822 156.327 70.1292 145.734 60.7377 149.056C53.0962 151.759 40.7456 166.454 41.3277 169.163C41.3375 169.283 41.344 169.385 41.3495 169.471C41.3666 169.738 41.3742 169.856 41.4407 169.91C41.5177 169.973 41.7825 169.908 42.0007 169.855C42.0887 169.833 42.1692 169.814 42.2267 169.805C43.375 169.631 45.0167 170.654 47.1097 171.958C51.3031 174.571 57.3084 178.312 64.7883 175.818C73.8752 172.787 80.2822 156.327 80.2822 156.327Z" fill="#6CBB0D"/>
<path d="M80.2822 156.327C80.2822 156.327 70.1292 145.734 60.7377 149.056C53.0962 151.759 40.7456 166.454 41.3277 169.163C41.3375 169.283 41.344 169.385 41.3495 169.471C41.3666 169.738 41.3742 169.856 41.4407 169.91C41.5177 169.973 41.7825 169.908 42.0007 169.855C42.0887 169.833 42.1692 169.814 42.2267 169.805C43.375 169.631 45.0167 170.654 47.1097 171.958C51.3031 174.571 57.3084 178.312 64.7883 175.818C73.8752 172.787 80.2822 156.327 80.2822 156.327Z" stroke="white"/>
<path d="M67.6866 142.989C67.6866 142.989 73.7075 128.744 68.9947 121.065C65.16 114.816 50.8698 109.044 48.8774 110.741C48.7859 110.801 48.7079 110.849 48.6417 110.891C48.4363 111.019 48.3455 111.076 48.3178 111.163C48.2856 111.264 48.3959 111.492 48.4869 111.681C48.5235 111.757 48.5571 111.826 48.5768 111.878C48.9712 112.914 48.5384 114.929 47.9867 117.496C46.8811 122.642 45.2979 130.009 48.9332 136.189C53.3495 143.696 67.6866 142.989 67.6866 142.989Z" fill="#6CBB0D"/>
<path d="M67.6866 142.989C67.6866 142.989 73.7075 128.744 68.9947 121.065C65.16 114.816 50.8698 109.044 48.8774 110.741C48.7859 110.801 48.7079 110.849 48.6417 110.891C48.4363 111.019 48.3455 111.076 48.3178 111.163C48.2856 111.264 48.3959 111.492 48.4869 111.681C48.5235 111.757 48.5571 111.826 48.5768 111.878C48.9712 112.914 48.5384 114.929 47.9867 117.496C46.8811 122.642 45.2979 130.009 48.9332 136.189C53.3495 143.696 67.6866 142.989 67.6866 142.989Z" stroke="white"/>
<path d="M126.634 189.271C126.634 189.271 118.007 196.509 117.646 203.895C117.352 209.905 122.873 220.164 124.588 219.859C124.66 219.858 124.721 219.859 124.772 219.859C124.931 219.86 125.001 219.86 125.049 219.812C125.105 219.756 125.132 219.55 125.154 219.379C125.163 219.31 125.171 219.248 125.18 219.203C125.359 218.312 126.353 217.105 127.62 215.567C130.16 212.485 133.797 208.071 134.172 202.196C134.628 195.059 126.634 189.271 126.634 189.271Z" fill="#6CBB0D"/>
<path d="M126.634 189.271C126.634 189.271 118.007 196.509 117.646 203.895C117.352 209.905 122.873 220.164 124.588 219.859C124.66 219.858 124.721 219.859 124.772 219.859C124.931 219.86 125.001 219.86 125.049 219.812C125.105 219.756 125.132 219.55 125.154 219.379C125.163 219.31 125.171 219.248 125.18 219.203C125.359 218.312 126.353 217.105 127.62 215.567C130.16 212.485 133.797 208.071 134.172 202.196C134.628 195.059 126.634 189.271 126.634 189.271Z" stroke="white"/>
<path d="M80.723 176.107C80.723 176.107 65.2996 176.343 59.2517 185.074C54.3308 192.177 52.8457 210.357 55.0465 211.707L55.3588 211.931L56.4862 212.07C56.7186 211.99 57.1797 211.891 57.8214 211.754C61.8799 210.886 73.1628 208.471 79.5203 199.598C85.487 191.27 80.723 176.107 80.723 176.107Z" fill="#6CBB0D"/>
<path d="M80.723 176.107C80.723 176.107 65.2996 176.343 59.2517 185.074C54.3308 192.177 52.8457 210.357 55.0465 211.707L55.3588 211.931L56.4862 212.07C56.7186 211.99 57.1797 211.891 57.8214 211.754C61.8799 210.886 73.1628 208.471 79.5203 199.598C85.487 191.27 80.723 176.107 80.723 176.107Z" stroke="white"/>
<path d="M104.323 119.512C104.323 119.512 112.852 115.039 114.503 108.695C115.847 103.532 113.109 93.452 111.621 93.3549L111.403 93.3241L110.749 93.568C110.636 93.6757 110.399 93.8581 110.069 94.112C107.982 95.7176 102.182 100.181 100.387 106.689C98.7017 112.797 104.323 119.512 104.323 119.512Z" fill="#6CBB0D"/>
<path d="M104.323 119.512C104.323 119.512 112.852 115.039 114.503 108.695C115.847 103.532 113.109 93.452 111.621 93.3549L111.403 93.3241L110.749 93.568C110.636 93.6757 110.399 93.8581 110.069 94.112C107.982 95.7176 102.182 100.181 100.387 106.689C98.7017 112.797 104.323 119.512 104.323 119.512Z" stroke="white"/>
</svg>
