<svg width="1363" height="163" viewBox="0 0 1363 163" fill="none" xmlns="http://www.w3.org/2000/svg">
<path d="M0 15C0 6.71573 6.71573 0 15 0H37V163H15C6.71573 163 0 156.284 0 148V15Z" fill="#00A72F"/>
<rect width="1097" height="163" transform="translate(37)" fill="#F0F0F0"/>
<path d="M101.906 53.9219L94.3945 51.2383V48.0859L104.602 52.375V54.6367L101.906 53.9219ZM94.3945 56.1719L101.918 53.4297L104.602 52.7852V55.0352L94.3945 59.3242V56.1719ZM124.348 58.2578V61H115.266V58.2578H124.348ZM116.414 43.9375V61H112.898V43.9375H116.414ZM123.164 50.8867V53.5586H115.266V50.8867H123.164ZM124.336 43.9375V46.6914H115.266V43.9375H124.336ZM131.191 58.5977C131.605 58.5977 131.973 58.5195 132.293 58.3633C132.613 58.1992 132.863 57.9727 133.043 57.6836C133.23 57.3867 133.328 57.0391 133.336 56.6406H136.512C136.504 57.5312 136.266 58.3242 135.797 59.0195C135.328 59.707 134.699 60.25 133.91 60.6484C133.121 61.0391 132.238 61.2344 131.262 61.2344C130.277 61.2344 129.418 61.0703 128.684 60.7422C127.957 60.4141 127.352 59.9609 126.867 59.3828C126.383 58.7969 126.02 58.1172 125.777 57.3438C125.535 56.5625 125.414 55.7266 125.414 54.8359V54.4961C125.414 53.5977 125.535 52.7617 125.777 51.9883C126.02 51.207 126.383 50.5273 126.867 49.9492C127.352 49.3633 127.957 48.9062 128.684 48.5781C129.41 48.25 130.262 48.0859 131.238 48.0859C132.277 48.0859 133.188 48.2852 133.969 48.6836C134.758 49.082 135.375 49.6523 135.82 50.3945C136.273 51.1289 136.504 52 136.512 53.0078H133.336C133.328 52.5859 133.238 52.2031 133.066 51.8594C132.902 51.5156 132.66 51.2422 132.34 51.0391C132.027 50.8281 131.641 50.7227 131.18 50.7227C130.688 50.7227 130.285 50.8281 129.973 51.0391C129.66 51.2422 129.418 51.5234 129.246 51.8828C129.074 52.2344 128.953 52.6367 128.883 53.0898C128.82 53.5352 128.789 54.0039 128.789 54.4961V54.8359C128.789 55.3281 128.82 55.8008 128.883 56.2539C128.945 56.707 129.062 57.1094 129.234 57.4609C129.414 57.8125 129.66 58.0898 129.973 58.293C130.285 58.4961 130.691 58.5977 131.191 58.5977ZM137.93 54.7891V54.543C137.93 53.6133 138.062 52.7578 138.328 51.9766C138.594 51.1875 138.98 50.5039 139.488 49.9258C139.996 49.3477 140.621 48.8984 141.363 48.5781C142.105 48.25 142.957 48.0859 143.918 48.0859C144.879 48.0859 145.734 48.25 146.484 48.5781C147.234 48.8984 147.863 49.3477 148.371 49.9258C148.887 50.5039 149.277 51.1875 149.543 51.9766C149.809 52.7578 149.941 53.6133 149.941 54.543V54.7891C149.941 55.7109 149.809 56.5664 149.543 57.3555C149.277 58.1367 148.887 58.8203 148.371 59.4062C147.863 59.9844 147.238 60.4336 146.496 60.7539C145.754 61.0742 144.902 61.2344 143.941 61.2344C142.98 61.2344 142.125 61.0742 141.375 60.7539C140.633 60.4336 140.004 59.9844 139.488 59.4062C138.98 58.8203 138.594 58.1367 138.328 57.3555C138.062 56.5664 137.93 55.7109 137.93 54.7891ZM141.305 54.543V54.7891C141.305 55.3203 141.352 55.8164 141.445 56.2773C141.539 56.7383 141.688 57.1445 141.891 57.4961C142.102 57.8398 142.375 58.1094 142.711 58.3047C143.047 58.5 143.457 58.5977 143.941 58.5977C144.41 58.5977 144.812 58.5 145.148 58.3047C145.484 58.1094 145.754 57.8398 145.957 57.4961C146.16 57.1445 146.309 56.7383 146.402 56.2773C146.504 55.8164 146.555 55.3203 146.555 54.7891V54.543C146.555 54.0273 146.504 53.543 146.402 53.0898C146.309 52.6289 146.156 52.2227 145.945 51.8711C145.742 51.5117 145.473 51.2305 145.137 51.0273C144.801 50.8242 144.395 50.7227 143.918 50.7227C143.441 50.7227 143.035 50.8242 142.699 51.0273C142.371 51.2305 142.102 51.5117 141.891 51.8711C141.688 52.2227 141.539 52.6289 141.445 53.0898C141.352 53.543 141.305 54.0273 141.305 54.543ZM159.855 43.9375V61H156.352V43.9375H159.855ZM165.105 43.9375V46.6914H151.184V43.9375H165.105ZM171.633 61.2344C170.648 61.2344 169.766 61.0781 168.984 60.7656C168.203 60.4453 167.539 60.0039 166.992 59.4414C166.453 58.8789 166.039 58.2266 165.75 57.4844C165.461 56.7344 165.316 55.9375 165.316 55.0938V54.625C165.316 53.6641 165.453 52.7852 165.727 51.9883C166 51.1914 166.391 50.5 166.898 49.9141C167.414 49.3281 168.039 48.8789 168.773 48.5664C169.508 48.2461 170.336 48.0859 171.258 48.0859C172.156 48.0859 172.953 48.2344 173.648 48.5312C174.344 48.8281 174.926 49.25 175.395 49.7969C175.871 50.3438 176.23 51 176.473 51.7656C176.715 52.5234 176.836 53.3672 176.836 54.2969V55.7031H166.758V53.4531H173.52V53.1953C173.52 52.7266 173.434 52.3086 173.262 51.9414C173.098 51.5664 172.848 51.2695 172.512 51.0508C172.176 50.832 171.746 50.7227 171.223 50.7227C170.777 50.7227 170.395 50.8203 170.074 51.0156C169.754 51.2109 169.492 51.4844 169.289 51.8359C169.094 52.1875 168.945 52.6016 168.844 53.0781C168.75 53.5469 168.703 54.0625 168.703 54.625V55.0938C168.703 55.6016 168.773 56.0703 168.914 56.5C169.062 56.9297 169.27 57.3008 169.535 57.6133C169.809 57.9258 170.137 58.168 170.52 58.3398C170.91 58.5117 171.352 58.5977 171.844 58.5977C172.453 58.5977 173.02 58.4805 173.543 58.2461C174.074 58.0039 174.531 57.6406 174.914 57.1562L176.555 58.9375C176.289 59.3203 175.926 59.6875 175.465 60.0391C175.012 60.3906 174.465 60.6797 173.824 60.9062C173.184 61.125 172.453 61.2344 171.633 61.2344ZM183.996 58.5977C184.41 58.5977 184.777 58.5195 185.098 58.3633C185.418 58.1992 185.668 57.9727 185.848 57.6836C186.035 57.3867 186.133 57.0391 186.141 56.6406H189.316C189.309 57.5312 189.07 58.3242 188.602 59.0195C188.133 59.707 187.504 60.25 186.715 60.6484C185.926 61.0391 185.043 61.2344 184.066 61.2344C183.082 61.2344 182.223 61.0703 181.488 60.7422C180.762 60.4141 180.156 59.9609 179.672 59.3828C179.188 58.7969 178.824 58.1172 178.582 57.3438C178.34 56.5625 178.219 55.7266 178.219 54.8359V54.4961C178.219 53.5977 178.34 52.7617 178.582 51.9883C178.824 51.207 179.188 50.5273 179.672 49.9492C180.156 49.3633 180.762 48.9062 181.488 48.5781C182.215 48.25 183.066 48.0859 184.043 48.0859C185.082 48.0859 185.992 48.2852 186.773 48.6836C187.562 49.082 188.18 49.6523 188.625 50.3945C189.078 51.1289 189.309 52 189.316 53.0078H186.141C186.133 52.5859 186.043 52.2031 185.871 51.8594C185.707 51.5156 185.465 51.2422 185.145 51.0391C184.832 50.8281 184.445 50.7227 183.984 50.7227C183.492 50.7227 183.09 50.8281 182.777 51.0391C182.465 51.2422 182.223 51.5234 182.051 51.8828C181.879 52.2344 181.758 52.6367 181.688 53.0898C181.625 53.5352 181.594 54.0039 181.594 54.4961V54.8359C181.594 55.3281 181.625 55.8008 181.688 56.2539C181.75 56.707 181.867 57.1094 182.039 57.4609C182.219 57.8125 182.465 58.0898 182.777 58.293C183.09 58.4961 183.496 58.5977 183.996 58.5977ZM194.566 43V61H191.191V43H194.566ZM194.086 54.2148H193.16C193.168 53.332 193.285 52.5195 193.512 51.7773C193.738 51.0273 194.062 50.3789 194.484 49.832C194.906 49.2773 195.41 48.8477 195.996 48.543C196.59 48.2383 197.246 48.0859 197.965 48.0859C198.59 48.0859 199.156 48.1758 199.664 48.3555C200.18 48.5273 200.621 48.8086 200.988 49.1992C201.363 49.582 201.652 50.0859 201.855 50.7109C202.059 51.3359 202.16 52.0938 202.16 52.9844V61H198.762V52.9609C198.762 52.3984 198.68 51.957 198.516 51.6367C198.359 51.3086 198.129 51.0781 197.824 50.9453C197.527 50.8047 197.16 50.7344 196.723 50.7344C196.238 50.7344 195.824 50.8242 195.48 51.0039C195.145 51.1836 194.875 51.4336 194.672 51.7539C194.469 52.0664 194.32 52.4336 194.227 52.8555C194.133 53.2773 194.086 53.7305 194.086 54.2148Z" fill="#888888"/>
<path d="M124.477 101.258V102.641C124.477 105.25 124.109 107.594 123.375 109.672C122.656 111.734 121.633 113.5 120.305 114.969C118.977 116.422 117.406 117.539 115.594 118.32C113.781 119.086 111.781 119.469 109.594 119.469C107.391 119.469 105.375 119.086 103.547 118.32C101.734 117.539 100.156 116.422 98.8125 114.969C97.4844 113.5 96.4531 111.734 95.7188 109.672C95 107.594 94.6406 105.25 94.6406 102.641V101.258C94.6406 98.6484 95 96.3047 95.7188 94.2266C96.4531 92.1484 97.4766 90.3828 98.7891 88.9297C100.117 87.4609 101.688 86.3438 103.5 85.5781C105.328 84.7969 107.344 84.4062 109.547 84.4062C111.734 84.4062 113.734 84.7969 115.547 85.5781C117.375 86.3438 118.953 87.4609 120.281 88.9297C121.609 90.3828 122.641 92.1484 123.375 94.2266C124.109 96.3047 124.477 98.6484 124.477 101.258ZM116.133 102.641V101.211C116.133 99.5234 115.984 98.0391 115.688 96.7578C115.406 95.4609 114.984 94.375 114.422 93.5C113.859 92.625 113.164 91.9688 112.336 91.5312C111.523 91.0781 110.594 90.8516 109.547 90.8516C108.453 90.8516 107.5 91.0781 106.688 91.5312C105.875 91.9688 105.195 92.625 104.648 93.5C104.102 94.375 103.688 95.4609 103.406 96.7578C103.141 98.0391 103.008 99.5234 103.008 101.211V102.641C103.008 104.312 103.141 105.797 103.406 107.094C103.688 108.375 104.102 109.461 104.648 110.352C105.211 111.242 105.898 111.914 106.711 112.367C107.539 112.82 108.5 113.047 109.594 113.047C110.641 113.047 111.57 112.82 112.383 112.367C113.195 111.914 113.875 111.242 114.422 110.352C114.984 109.461 115.406 108.375 115.688 107.094C115.984 105.797 116.133 104.312 116.133 102.641ZM136.336 98.5156V128.75H128.438V93.6406H135.797L136.336 98.5156ZM151.898 106.016V106.508C151.898 108.352 151.688 110.062 151.266 111.641C150.844 113.219 150.219 114.594 149.391 115.766C148.562 116.938 147.531 117.852 146.297 118.508C145.078 119.148 143.664 119.469 142.055 119.469C140.539 119.469 139.234 119.133 138.141 118.461C137.047 117.789 136.133 116.859 135.398 115.672C134.664 114.484 134.07 113.125 133.617 111.594C133.164 110.062 132.805 108.445 132.539 106.742V106.109C132.805 104.281 133.164 102.586 133.617 101.023C134.07 99.4453 134.664 98.0703 135.398 96.8984C136.133 95.7266 137.039 94.8125 138.117 94.1562C139.211 93.5 140.516 93.1719 142.031 93.1719C143.641 93.1719 145.055 93.4766 146.273 94.0859C147.508 94.6953 148.539 95.5703 149.367 96.7109C150.211 97.8359 150.844 99.1875 151.266 100.766C151.688 102.344 151.898 104.094 151.898 106.016ZM144 106.508V106.016C144 105.031 143.93 104.133 143.789 103.32C143.648 102.492 143.422 101.773 143.109 101.164C142.812 100.555 142.414 100.086 141.914 99.7578C141.414 99.4297 140.797 99.2656 140.062 99.2656C139.219 99.2656 138.508 99.3984 137.93 99.6641C137.367 99.9141 136.914 100.305 136.57 100.836C136.242 101.352 136.008 102 135.867 102.781C135.742 103.547 135.688 104.445 135.703 105.477V107.398C135.672 108.586 135.789 109.633 136.055 110.539C136.32 111.43 136.781 112.125 137.438 112.625C138.094 113.125 138.984 113.375 140.109 113.375C140.859 113.375 141.484 113.203 141.984 112.859C142.484 112.5 142.883 112.008 143.18 111.383C143.477 110.742 143.688 110.008 143.812 109.18C143.938 108.352 144 107.461 144 106.508ZM167.695 119.469C165.633 119.469 163.789 119.148 162.164 118.508C160.539 117.852 159.164 116.953 158.039 115.812C156.93 114.672 156.078 113.359 155.484 111.875C154.906 110.391 154.617 108.82 154.617 107.164V106.273C154.617 104.414 154.875 102.695 155.391 101.117C155.906 99.5234 156.672 98.1328 157.688 96.9453C158.703 95.7578 159.977 94.8359 161.508 94.1797C163.039 93.5078 164.82 93.1719 166.852 93.1719C168.648 93.1719 170.258 93.4609 171.68 94.0391C173.102 94.6172 174.305 95.4453 175.289 96.5234C176.289 97.6016 177.047 98.9062 177.562 100.438C178.094 101.969 178.359 103.688 178.359 105.594V108.805H157.641V103.859H170.648V103.25C170.664 102.406 170.516 101.688 170.203 101.094C169.906 100.5 169.469 100.047 168.891 99.7344C168.312 99.4219 167.609 99.2656 166.781 99.2656C165.922 99.2656 165.211 99.4531 164.648 99.8281C164.102 100.203 163.672 100.719 163.359 101.375C163.062 102.016 162.852 102.758 162.727 103.602C162.602 104.445 162.539 105.336 162.539 106.273V107.164C162.539 108.102 162.664 108.953 162.914 109.719C163.18 110.484 163.555 111.141 164.039 111.688C164.539 112.219 165.133 112.633 165.82 112.93C166.523 113.227 167.32 113.375 168.211 113.375C169.289 113.375 170.352 113.172 171.398 112.766C172.445 112.359 173.344 111.688 174.094 110.75L177.68 115.016C177.164 115.75 176.43 116.461 175.477 117.148C174.539 117.836 173.414 118.398 172.102 118.836C170.789 119.258 169.32 119.469 167.695 119.469ZM189.328 99.0547V119H181.43V93.6406H188.836L189.328 99.0547ZM188.391 105.453L186.539 105.5C186.539 103.562 186.773 101.836 187.242 100.32C187.711 98.7891 188.375 97.4922 189.234 96.4297C190.094 95.3672 191.117 94.5625 192.305 94.0156C193.508 93.4531 194.844 93.1719 196.312 93.1719C197.484 93.1719 198.555 93.3438 199.523 93.6875C200.508 94.0312 201.352 94.5859 202.055 95.3516C202.773 96.1172 203.32 97.1328 203.695 98.3984C204.086 99.6484 204.281 101.195 204.281 103.039V119H196.336V103.016C196.336 102 196.195 101.227 195.914 100.695C195.633 100.148 195.227 99.7734 194.695 99.5703C194.164 99.3672 193.516 99.2656 192.75 99.2656C191.938 99.2656 191.25 99.4219 190.688 99.7344C190.125 100.047 189.672 100.484 189.328 101.047C189 101.594 188.758 102.242 188.602 102.992C188.461 103.742 188.391 104.562 188.391 105.453ZM223.5 92.0469L215.18 119H206.344L218.883 84.875H224.484L223.5 92.0469ZM230.391 119L222.047 92.0469L220.969 84.875H226.641L239.25 119H230.391ZM230.062 106.273V112.625H212.555V106.273H230.062ZM250.5 84.875V119H242.297V84.875H250.5Z" fill="black"/>
<path d="M1134 0H1348C1356.28 0 1363 6.71573 1363 15V148C1363 156.284 1356.28 163 1348 163H1134V0Z" fill="#00A72F"/>
<path d="M1273.5 81.5V97.125C1273.5 103.018 1273.5 105.964 1271.67 107.794C1269.84 109.625 1266.89 109.625 1261 109.625H1231.31C1227 109.625 1223.5 106.127 1223.5 101.812V101.812C1223.5 97.4978 1227 94 1231.31 94H1261C1266.89 94 1269.84 94 1271.67 92.1694C1273.5 90.3388 1273.5 87.3926 1273.5 81.5V65.875C1273.5 59.9824 1273.5 57.0362 1271.67 55.2056C1269.84 53.375 1266.89 53.375 1261 53.375H1236C1230.11 53.375 1227.16 53.375 1225.33 55.2056C1223.5 57.0362 1223.5 59.9824 1223.5 65.875V101.812" stroke="white" stroke-width="6.25"/>
<path d="M1239.12 69L1257.88 69" stroke="white" stroke-width="6.25" stroke-linecap="round"/>
</svg>
