<svg width="1363" height="297" viewBox="0 0 1363 297" fill="none" xmlns="http://www.w3.org/2000/svg">
<path d="M0 15C0 6.71573 6.71573 0 15 0H37V297H15C6.71573 297 0 290.284 0 282V15Z" fill="#00A72F"/>
<path d="M37 0H1066V297H37V0Z" fill="#F0F0F0"/>
<path d="M95.2852 49.4062H104.83C106.787 49.4062 108.469 49.6992 109.875 50.2852C111.293 50.8711 112.383 51.7383 113.145 52.8867C113.906 54.0352 114.287 55.4473 114.287 57.123C114.287 58.4941 114.053 59.6719 113.584 60.6562C113.127 61.6289 112.477 62.4434 111.633 63.0996C110.801 63.7441 109.822 64.2598 108.697 64.6465L107.027 65.5254H98.7305L98.6953 61.4121H104.865C105.791 61.4121 106.559 61.248 107.168 60.9199C107.777 60.5918 108.234 60.1348 108.539 59.5488C108.855 58.9629 109.014 58.2832 109.014 57.5098C109.014 56.6895 108.861 55.9805 108.557 55.3828C108.252 54.7852 107.789 54.3281 107.168 54.0117C106.547 53.6953 105.768 53.5371 104.83 53.5371H100.559V75H95.2852V49.4062ZM109.594 75L103.758 63.5918L109.33 63.5566L115.236 74.7539V75H109.594ZM128.297 70.7109V62.2383C128.297 61.6289 128.197 61.1074 127.998 60.6738C127.799 60.2285 127.488 59.8828 127.066 59.6367C126.656 59.3906 126.123 59.2676 125.467 59.2676C124.904 59.2676 124.418 59.3672 124.008 59.5664C123.598 59.7539 123.281 60.0293 123.059 60.3926C122.836 60.7441 122.725 61.1602 122.725 61.6406H117.662C117.662 60.832 117.85 60.0645 118.225 59.3379C118.6 58.6113 119.145 57.9727 119.859 57.4219C120.574 56.8594 121.424 56.4199 122.408 56.1035C123.404 55.7871 124.518 55.6289 125.748 55.6289C127.225 55.6289 128.537 55.875 129.686 56.3672C130.834 56.8594 131.736 57.5977 132.393 58.582C133.061 59.5664 133.395 60.7969 133.395 62.2734V70.4121C133.395 71.4551 133.459 72.3105 133.588 72.9785C133.717 73.6348 133.904 74.209 134.15 74.7012V75H129.035C128.789 74.4844 128.602 73.8398 128.473 73.0664C128.355 72.2812 128.297 71.4961 128.297 70.7109ZM128.965 63.416L129 66.2812H126.17C125.502 66.2812 124.922 66.3574 124.43 66.5098C123.938 66.6621 123.533 66.8789 123.217 67.1602C122.9 67.4297 122.666 67.7461 122.514 68.1094C122.373 68.4727 122.303 68.8711 122.303 69.3047C122.303 69.7383 122.402 70.1309 122.602 70.4824C122.801 70.8223 123.088 71.0918 123.463 71.291C123.838 71.4785 124.277 71.5723 124.781 71.5723C125.543 71.5723 126.205 71.4199 126.768 71.1152C127.33 70.8105 127.764 70.4355 128.068 69.9902C128.385 69.5449 128.549 69.123 128.561 68.7246L129.896 70.8691C129.709 71.3496 129.451 71.8477 129.123 72.3633C128.807 72.8789 128.402 73.3652 127.91 73.8223C127.418 74.2676 126.826 74.6367 126.135 74.9297C125.443 75.2109 124.623 75.3516 123.674 75.3516C122.467 75.3516 121.371 75.1113 120.387 74.6309C119.414 74.1387 118.641 73.4648 118.066 72.6094C117.504 71.7422 117.223 70.7578 117.223 69.6562C117.223 68.6602 117.41 67.7754 117.785 67.002C118.16 66.2285 118.711 65.5781 119.438 65.0508C120.176 64.5117 121.096 64.1074 122.197 63.8379C123.299 63.5566 124.576 63.416 126.029 63.416H128.965ZM142.658 72.8555L147.703 55.9805H153.135L145.488 77.8652C145.324 78.3457 145.102 78.8613 144.82 79.4121C144.551 79.9629 144.182 80.4844 143.713 80.9766C143.256 81.4805 142.676 81.8906 141.973 82.207C141.281 82.5234 140.432 82.6816 139.424 82.6816C138.943 82.6816 138.551 82.6523 138.246 82.5938C137.941 82.5352 137.578 82.4531 137.156 82.3477V78.6387C137.285 78.6387 137.42 78.6387 137.561 78.6387C137.701 78.6504 137.836 78.6562 137.965 78.6562C138.633 78.6562 139.178 78.5801 139.6 78.4277C140.021 78.2754 140.361 78.041 140.619 77.7246C140.877 77.4199 141.082 77.0215 141.234 76.5293L142.658 72.8555ZM140.549 55.9805L144.68 69.7617L145.4 75.123L141.955 75.4922L135.117 55.9805H140.549ZM165.141 70.7109V62.2383C165.141 61.6289 165.041 61.1074 164.842 60.6738C164.643 60.2285 164.332 59.8828 163.91 59.6367C163.5 59.3906 162.967 59.2676 162.311 59.2676C161.748 59.2676 161.262 59.3672 160.852 59.5664C160.441 59.7539 160.125 60.0293 159.902 60.3926C159.68 60.7441 159.568 61.1602 159.568 61.6406H154.506C154.506 60.832 154.693 60.0645 155.068 59.3379C155.443 58.6113 155.988 57.9727 156.703 57.4219C157.418 56.8594 158.268 56.4199 159.252 56.1035C160.248 55.7871 161.361 55.6289 162.592 55.6289C164.068 55.6289 165.381 55.875 166.529 56.3672C167.678 56.8594 168.58 57.5977 169.236 58.582C169.904 59.5664 170.238 60.7969 170.238 62.2734V70.4121C170.238 71.4551 170.303 72.3105 170.432 72.9785C170.561 73.6348 170.748 74.209 170.994 74.7012V75H165.879C165.633 74.4844 165.445 73.8398 165.316 73.0664C165.199 72.2812 165.141 71.4961 165.141 70.7109ZM165.809 63.416L165.844 66.2812H163.014C162.346 66.2812 161.766 66.3574 161.273 66.5098C160.781 66.6621 160.377 66.8789 160.061 67.1602C159.744 67.4297 159.51 67.7461 159.357 68.1094C159.217 68.4727 159.146 68.8711 159.146 69.3047C159.146 69.7383 159.246 70.1309 159.445 70.4824C159.645 70.8223 159.932 71.0918 160.307 71.291C160.682 71.4785 161.121 71.5723 161.625 71.5723C162.387 71.5723 163.049 71.4199 163.611 71.1152C164.174 70.8105 164.607 70.4355 164.912 69.9902C165.229 69.5449 165.393 69.123 165.404 68.7246L166.74 70.8691C166.553 71.3496 166.295 71.8477 165.967 72.3633C165.65 72.8789 165.246 73.3652 164.754 73.8223C164.262 74.2676 163.67 74.6367 162.979 74.9297C162.287 75.2109 161.467 75.3516 160.518 75.3516C159.311 75.3516 158.215 75.1113 157.23 74.6309C156.258 74.1387 155.484 73.4648 154.91 72.6094C154.348 71.7422 154.066 70.7578 154.066 69.6562C154.066 68.6602 154.254 67.7754 154.629 67.002C155.004 66.2285 155.555 65.5781 156.281 65.0508C157.02 64.5117 157.939 64.1074 159.041 63.8379C160.143 63.5566 161.42 63.416 162.873 63.416H165.809ZM179.098 60.041V75H174.035V55.9805H178.781L179.098 60.041ZM178.359 64.8223H176.988C176.988 63.416 177.17 62.1504 177.533 61.0254C177.896 59.8887 178.406 58.9219 179.062 58.125C179.719 57.3164 180.498 56.7012 181.4 56.2793C182.314 55.8457 183.334 55.6289 184.459 55.6289C185.35 55.6289 186.164 55.7578 186.902 56.0156C187.641 56.2734 188.273 56.6836 188.801 57.2461C189.34 57.8086 189.75 58.5527 190.031 59.4785C190.324 60.4043 190.471 61.5352 190.471 62.8711V75H185.373V62.8535C185.373 62.0098 185.256 61.3535 185.021 60.8848C184.787 60.416 184.441 60.0879 183.984 59.9004C183.539 59.7012 182.988 59.6016 182.332 59.6016C181.652 59.6016 181.061 59.7363 180.557 60.0059C180.064 60.2754 179.654 60.6504 179.326 61.1309C179.01 61.5996 178.77 62.1504 178.605 62.7832C178.441 63.416 178.359 64.0957 178.359 64.8223ZM220.775 70.8867V75H207.152V70.8867H220.775ZM208.875 49.4062V75H203.602V49.4062H208.875ZM219 59.8301V63.8379H207.152V59.8301H219ZM220.758 49.4062V53.5371H207.152V49.4062H220.758ZM228.598 59.918V75H223.518V55.9805H228.281L228.598 59.918ZM227.895 64.8223H226.488C226.488 63.498 226.646 62.2793 226.963 61.166C227.291 60.041 227.766 59.0684 228.387 58.248C229.02 57.416 229.799 56.7715 230.725 56.3145C231.65 55.8574 232.723 55.6289 233.941 55.6289C234.785 55.6289 235.559 55.7578 236.262 56.0156C236.965 56.2617 237.568 56.6543 238.072 57.1934C238.588 57.7207 238.986 58.4121 239.268 59.2676C239.549 60.1113 239.689 61.125 239.689 62.3086V75H234.627V62.8711C234.627 62.0039 234.51 61.3359 234.275 60.8672C234.041 60.3984 233.707 60.0703 233.273 59.8828C232.852 59.6953 232.342 59.6016 231.744 59.6016C231.088 59.6016 230.514 59.7363 230.021 60.0059C229.541 60.2754 229.143 60.6504 228.826 61.1309C228.51 61.5996 228.275 62.1504 228.123 62.7832C227.971 63.416 227.895 64.0957 227.895 64.8223ZM239.215 64.2422L237.404 64.4707C237.404 63.2285 237.557 62.0742 237.861 61.0078C238.178 59.9414 238.641 59.0039 239.25 58.1953C239.871 57.3867 240.639 56.7598 241.553 56.3145C242.467 55.8574 243.521 55.6289 244.717 55.6289C245.631 55.6289 246.463 55.7637 247.213 56.0332C247.963 56.291 248.602 56.707 249.129 57.2812C249.668 57.8438 250.078 58.582 250.359 59.4961C250.652 60.4102 250.799 61.5293 250.799 62.8535V75H245.719V62.8535C245.719 61.9746 245.602 61.3066 245.367 60.8496C245.145 60.3809 244.816 60.0586 244.383 59.8828C243.961 59.6953 243.457 59.6016 242.871 59.6016C242.262 59.6016 241.729 59.7246 241.271 59.9707C240.814 60.2051 240.434 60.5332 240.129 60.9551C239.824 61.377 239.596 61.8691 239.443 62.4316C239.291 62.9824 239.215 63.5859 239.215 64.2422ZM264.984 70.7109V62.2383C264.984 61.6289 264.885 61.1074 264.686 60.6738C264.486 60.2285 264.176 59.8828 263.754 59.6367C263.344 59.3906 262.811 59.2676 262.154 59.2676C261.592 59.2676 261.105 59.3672 260.695 59.5664C260.285 59.7539 259.969 60.0293 259.746 60.3926C259.523 60.7441 259.412 61.1602 259.412 61.6406H254.35C254.35 60.832 254.537 60.0645 254.912 59.3379C255.287 58.6113 255.832 57.9727 256.547 57.4219C257.262 56.8594 258.111 56.4199 259.096 56.1035C260.092 55.7871 261.205 55.6289 262.436 55.6289C263.912 55.6289 265.225 55.875 266.373 56.3672C267.521 56.8594 268.424 57.5977 269.08 58.582C269.748 59.5664 270.082 60.7969 270.082 62.2734V70.4121C270.082 71.4551 270.146 72.3105 270.275 72.9785C270.404 73.6348 270.592 74.209 270.838 74.7012V75H265.723C265.477 74.4844 265.289 73.8398 265.16 73.0664C265.043 72.2812 264.984 71.4961 264.984 70.7109ZM265.652 63.416L265.688 66.2812H262.857C262.189 66.2812 261.609 66.3574 261.117 66.5098C260.625 66.6621 260.221 66.8789 259.904 67.1602C259.588 67.4297 259.354 67.7461 259.201 68.1094C259.061 68.4727 258.99 68.8711 258.99 69.3047C258.99 69.7383 259.09 70.1309 259.289 70.4824C259.488 70.8223 259.775 71.0918 260.15 71.291C260.525 71.4785 260.965 71.5723 261.469 71.5723C262.23 71.5723 262.893 71.4199 263.455 71.1152C264.018 70.8105 264.451 70.4355 264.756 69.9902C265.072 69.5449 265.236 69.123 265.248 68.7246L266.584 70.8691C266.396 71.3496 266.139 71.8477 265.811 72.3633C265.494 72.8789 265.09 73.3652 264.598 73.8223C264.105 74.2676 263.514 74.6367 262.822 74.9297C262.131 75.2109 261.311 75.3516 260.361 75.3516C259.154 75.3516 258.059 75.1113 257.074 74.6309C256.102 74.1387 255.328 73.4648 254.754 72.6094C254.191 71.7422 253.91 70.7578 253.91 69.6562C253.91 68.6602 254.098 67.7754 254.473 67.002C254.848 66.2285 255.398 65.5781 256.125 65.0508C256.863 64.5117 257.783 64.1074 258.885 63.8379C259.986 63.5566 261.264 63.416 262.717 63.416H265.652ZM285.217 70.8516V48H290.314V75H285.727L285.217 70.8516ZM273.193 65.7188V65.3496C273.193 63.8965 273.357 62.5781 273.686 61.3945C274.014 60.1992 274.494 59.1738 275.127 58.3184C275.76 57.4629 276.539 56.8008 277.465 56.332C278.391 55.8633 279.445 55.6289 280.629 55.6289C281.742 55.6289 282.715 55.8633 283.547 56.332C284.391 56.8008 285.105 57.4688 285.691 58.3359C286.289 59.1914 286.77 60.2051 287.133 61.377C287.496 62.5371 287.76 63.8086 287.924 65.1914V66C287.76 67.3242 287.496 68.5547 287.133 69.6914C286.77 70.8281 286.289 71.8242 285.691 72.6797C285.105 73.5234 284.391 74.1797 283.547 74.6484C282.703 75.1172 281.719 75.3516 280.594 75.3516C279.41 75.3516 278.355 75.1113 277.43 74.6309C276.516 74.1504 275.742 73.4766 275.109 72.6094C274.488 71.7422 274.014 70.7227 273.686 69.5508C273.357 68.3789 273.193 67.1016 273.193 65.7188ZM278.256 65.3496V65.7188C278.256 66.5039 278.314 67.2363 278.432 67.916C278.561 68.5957 278.766 69.1992 279.047 69.7266C279.34 70.2422 279.715 70.6465 280.172 70.9395C280.641 71.2207 281.209 71.3613 281.877 71.3613C282.744 71.3613 283.459 71.168 284.021 70.7812C284.584 70.3828 285.012 69.8379 285.305 69.1465C285.609 68.4551 285.785 67.6582 285.832 66.7559V64.4531C285.797 63.7148 285.691 63.0527 285.516 62.4668C285.352 61.8691 285.105 61.3594 284.777 60.9375C284.461 60.5156 284.062 60.1875 283.582 59.9531C283.113 59.7188 282.557 59.6016 281.912 59.6016C281.256 59.6016 280.693 59.7539 280.225 60.0586C279.756 60.3516 279.375 60.7559 279.082 61.2715C278.801 61.7871 278.59 62.3965 278.449 63.0996C278.32 63.791 278.256 64.541 278.256 65.3496Z" fill="#888888"/>
<path d="M123.434 132.617V140H102.215V132.617H123.434ZM105.633 100.188V140H96.0352V100.188H105.633ZM120.699 115.992V123.129H102.215V115.992H120.699ZM123.516 100.188V107.598H102.215V100.188H123.516ZM138.883 133.438C139.74 133.438 140.469 133.283 141.07 132.973C141.69 132.645 142.155 132.189 142.465 131.605C142.793 131.004 142.948 130.284 142.93 129.445H151.598C151.616 131.669 151.069 133.62 149.957 135.297C148.863 136.956 147.368 138.25 145.473 139.18C143.595 140.091 141.471 140.547 139.102 140.547C136.786 140.547 134.763 140.173 133.031 139.426C131.299 138.66 129.85 137.603 128.684 136.254C127.535 134.887 126.669 133.292 126.086 131.469C125.521 129.646 125.238 127.668 125.238 125.535V124.906C125.238 122.773 125.521 120.796 126.086 118.973C126.669 117.132 127.535 115.536 128.684 114.188C129.85 112.82 131.29 111.763 133.004 111.016C134.736 110.25 136.75 109.867 139.047 109.867C141.508 109.867 143.677 110.332 145.555 111.262C147.451 112.191 148.936 113.54 150.012 115.309C151.087 117.077 151.616 119.219 151.598 121.734H142.93C142.948 120.841 142.811 120.039 142.52 119.328C142.228 118.617 141.772 118.052 141.152 117.633C140.551 117.195 139.776 116.977 138.828 116.977C137.88 116.977 137.115 117.186 136.531 117.605C135.948 118.025 135.501 118.608 135.191 119.355C134.9 120.085 134.699 120.923 134.59 121.871C134.499 122.819 134.453 123.831 134.453 124.906V125.535C134.453 126.629 134.499 127.659 134.59 128.625C134.699 129.573 134.909 130.411 135.219 131.141C135.529 131.852 135.975 132.417 136.559 132.836C137.142 133.237 137.917 133.438 138.883 133.438ZM154.387 125.508V124.934C154.387 122.764 154.697 120.768 155.316 118.945C155.936 117.104 156.848 115.509 158.051 114.16C159.254 112.811 160.74 111.763 162.508 111.016C164.276 110.25 166.318 109.867 168.633 109.867C170.966 109.867 173.017 110.25 174.785 111.016C176.572 111.763 178.066 112.811 179.27 114.16C180.473 115.509 181.384 117.104 182.004 118.945C182.624 120.768 182.934 122.764 182.934 124.934V125.508C182.934 127.659 182.624 129.655 182.004 131.496C181.384 133.319 180.473 134.914 179.27 136.281C178.066 137.63 176.581 138.678 174.812 139.426C173.044 140.173 171.003 140.547 168.688 140.547C166.372 140.547 164.322 140.173 162.535 139.426C160.749 138.678 159.254 137.63 158.051 136.281C156.848 134.914 155.936 133.319 155.316 131.496C154.697 129.655 154.387 127.659 154.387 125.508ZM163.602 124.934V125.508C163.602 126.62 163.684 127.659 163.848 128.625C164.012 129.591 164.285 130.439 164.668 131.168C165.051 131.879 165.57 132.435 166.227 132.836C166.883 133.237 167.703 133.438 168.688 133.438C169.654 133.438 170.456 133.237 171.094 132.836C171.75 132.435 172.27 131.879 172.652 131.168C173.035 130.439 173.309 129.591 173.473 128.625C173.637 127.659 173.719 126.62 173.719 125.508V124.934C173.719 123.858 173.637 122.846 173.473 121.898C173.309 120.932 173.035 120.085 172.652 119.355C172.27 118.608 171.75 118.025 171.094 117.605C170.438 117.186 169.617 116.977 168.633 116.977C167.667 116.977 166.855 117.186 166.199 117.605C165.561 118.025 165.051 118.608 164.668 119.355C164.285 120.085 164.012 120.932 163.848 121.898C163.684 122.846 163.602 123.858 163.602 124.934ZM206.75 100.188V140H197.152V100.188H206.75ZM218.727 100.188V107.598H185.449V100.188H218.727ZM234.23 140.547C231.824 140.547 229.673 140.173 227.777 139.426C225.882 138.66 224.277 137.612 222.965 136.281C221.671 134.951 220.677 133.419 219.984 131.688C219.31 129.956 218.973 128.124 218.973 126.191V125.152C218.973 122.983 219.273 120.978 219.875 119.137C220.477 117.277 221.37 115.655 222.555 114.27C223.74 112.884 225.225 111.809 227.012 111.043C228.798 110.259 230.876 109.867 233.246 109.867C235.342 109.867 237.22 110.204 238.879 110.879C240.538 111.553 241.941 112.52 243.09 113.777C244.257 115.035 245.141 116.557 245.742 118.344C246.362 120.13 246.672 122.135 246.672 124.359V128.105H222.5V122.336H237.676V121.625C237.694 120.641 237.521 119.802 237.156 119.109C236.81 118.417 236.299 117.888 235.625 117.523C234.951 117.159 234.13 116.977 233.164 116.977C232.161 116.977 231.332 117.195 230.676 117.633C230.038 118.07 229.536 118.672 229.172 119.438C228.826 120.185 228.579 121.051 228.434 122.035C228.288 123.02 228.215 124.059 228.215 125.152V126.191C228.215 127.285 228.361 128.279 228.652 129.172C228.962 130.065 229.4 130.831 229.965 131.469C230.548 132.089 231.241 132.572 232.043 132.918C232.863 133.264 233.793 133.438 234.832 133.438C236.09 133.438 237.329 133.201 238.551 132.727C239.772 132.253 240.82 131.469 241.695 130.375L245.879 135.352C245.277 136.208 244.421 137.038 243.309 137.84C242.215 138.642 240.902 139.298 239.371 139.809C237.84 140.301 236.126 140.547 234.23 140.547ZM262.914 133.438C263.771 133.438 264.5 133.283 265.102 132.973C265.721 132.645 266.186 132.189 266.496 131.605C266.824 131.004 266.979 130.284 266.961 129.445H275.629C275.647 131.669 275.1 133.62 273.988 135.297C272.895 136.956 271.4 138.25 269.504 139.18C267.626 140.091 265.503 140.547 263.133 140.547C260.818 140.547 258.794 140.173 257.062 139.426C255.331 138.66 253.882 137.603 252.715 136.254C251.566 134.887 250.701 133.292 250.117 131.469C249.552 129.646 249.27 127.668 249.27 125.535V124.906C249.27 122.773 249.552 120.796 250.117 118.973C250.701 117.132 251.566 115.536 252.715 114.188C253.882 112.82 255.322 111.763 257.035 111.016C258.767 110.25 260.781 109.867 263.078 109.867C265.539 109.867 267.708 110.332 269.586 111.262C271.482 112.191 272.967 113.54 274.043 115.309C275.118 117.077 275.647 119.219 275.629 121.734H266.961C266.979 120.841 266.842 120.039 266.551 119.328C266.259 118.617 265.803 118.052 265.184 117.633C264.582 117.195 263.807 116.977 262.859 116.977C261.911 116.977 261.146 117.186 260.562 117.605C259.979 118.025 259.533 118.608 259.223 119.355C258.931 120.085 258.73 120.923 258.621 121.871C258.53 122.819 258.484 123.831 258.484 124.906V125.535C258.484 126.629 258.53 127.659 258.621 128.625C258.73 129.573 258.94 130.411 259.25 131.141C259.56 131.852 260.007 132.417 260.59 132.836C261.173 133.237 261.948 133.438 262.914 133.438ZM288.59 98V140H279.375V98H288.59ZM287.496 124.195L285.336 124.25C285.336 122.172 285.591 120.258 286.102 118.508C286.612 116.758 287.341 115.236 288.289 113.941C289.237 112.647 290.376 111.645 291.707 110.934C293.038 110.223 294.514 109.867 296.137 109.867C297.595 109.867 298.926 110.077 300.129 110.496C301.35 110.915 302.398 111.59 303.273 112.52C304.167 113.449 304.85 114.661 305.324 116.156C305.816 117.651 306.062 119.474 306.062 121.625V140H296.793V121.57C296.793 120.367 296.62 119.438 296.273 118.781C295.945 118.107 295.471 117.642 294.852 117.387C294.232 117.113 293.475 116.977 292.582 116.977C291.507 116.977 290.632 117.159 289.957 117.523C289.283 117.888 288.763 118.398 288.398 119.055C288.052 119.693 287.815 120.449 287.688 121.324C287.56 122.199 287.496 123.156 287.496 124.195Z" fill="black"/>
<rect x="93" y="178" width="917" height="77" rx="10" fill="#D3D3D3"/>
<rect x="111" y="196" width="148" height="41" rx="3" fill="#424242"/>
<path d="M134.234 210.203H139.271C140.255 210.203 141.11 210.35 141.837 210.643C142.563 210.936 143.123 211.369 143.516 211.943C143.914 212.518 144.113 213.227 144.113 214.07C144.113 214.803 143.999 215.415 143.771 215.907C143.542 216.399 143.223 216.807 142.812 217.129C142.408 217.445 141.937 217.706 141.397 217.911L140.387 218.482H136.159L136.142 216.101H139.271C139.663 216.101 139.988 216.03 140.246 215.89C140.504 215.749 140.697 215.55 140.826 215.292C140.961 215.028 141.028 214.715 141.028 214.352C141.028 213.982 140.961 213.666 140.826 213.402C140.691 213.139 140.492 212.937 140.229 212.796C139.971 212.655 139.651 212.585 139.271 212.585H137.319V223H134.234V210.203ZM141.239 223L138.409 217.34L141.679 217.322L144.544 222.868V223H141.239ZM150.441 223.176C149.668 223.176 148.977 223.056 148.367 222.815C147.758 222.569 147.242 222.232 146.82 221.805C146.404 221.377 146.085 220.885 145.862 220.328C145.646 219.771 145.537 219.183 145.537 218.562V218.228C145.537 217.53 145.634 216.886 145.827 216.294C146.021 215.696 146.308 215.175 146.688 214.729C147.069 214.284 147.547 213.938 148.121 213.692C148.695 213.44 149.363 213.314 150.125 213.314C150.799 213.314 151.402 213.423 151.936 213.64C152.469 213.856 152.92 214.167 153.289 214.571C153.664 214.976 153.948 215.465 154.142 216.039C154.341 216.613 154.44 217.258 154.44 217.973V219.177H146.671V217.322H151.549V217.094C151.555 216.777 151.499 216.508 151.382 216.285C151.271 216.062 151.106 215.893 150.89 215.775C150.673 215.658 150.409 215.6 150.099 215.6C149.776 215.6 149.51 215.67 149.299 215.811C149.094 215.951 148.933 216.145 148.815 216.391C148.704 216.631 148.625 216.909 148.578 217.226C148.531 217.542 148.508 217.876 148.508 218.228V218.562C148.508 218.913 148.555 219.232 148.648 219.52C148.748 219.807 148.889 220.053 149.07 220.258C149.258 220.457 149.48 220.612 149.738 220.724C150.002 220.835 150.301 220.891 150.635 220.891C151.039 220.891 151.438 220.814 151.83 220.662C152.223 220.51 152.56 220.258 152.841 219.906L154.186 221.506C153.992 221.781 153.717 222.048 153.359 222.306C153.008 222.563 152.586 222.774 152.094 222.938C151.602 223.097 151.051 223.176 150.441 223.176ZM160.584 220.609V216.689C160.584 216.42 160.546 216.188 160.47 215.995C160.394 215.802 160.273 215.652 160.109 215.547C159.945 215.436 159.726 215.38 159.45 215.38C159.228 215.38 159.037 215.418 158.879 215.494C158.721 215.57 158.601 215.685 158.519 215.837C158.437 215.989 158.396 216.183 158.396 216.417H155.434C155.434 215.978 155.53 215.57 155.724 215.195C155.923 214.814 156.204 214.483 156.567 214.202C156.937 213.921 157.376 213.704 157.886 213.552C158.401 213.394 158.976 213.314 159.608 213.314C160.364 213.314 161.038 213.44 161.63 213.692C162.228 213.944 162.699 214.322 163.045 214.826C163.391 215.324 163.563 215.951 163.563 216.707V220.601C163.563 221.222 163.599 221.693 163.669 222.016C163.739 222.332 163.839 222.61 163.968 222.851V223H160.997C160.856 222.707 160.751 222.35 160.681 221.928C160.616 221.5 160.584 221.061 160.584 220.609ZM160.944 217.19L160.962 218.772H159.652C159.377 218.772 159.143 218.811 158.949 218.887C158.762 218.963 158.609 219.068 158.492 219.203C158.381 219.332 158.299 219.479 158.246 219.643C158.199 219.807 158.176 219.979 158.176 220.161C158.176 220.337 158.217 220.495 158.299 220.636C158.387 220.771 158.504 220.876 158.65 220.952C158.797 221.028 158.961 221.066 159.143 221.066C159.471 221.066 159.749 221.005 159.978 220.882C160.212 220.753 160.391 220.598 160.514 220.416C160.637 220.234 160.698 220.064 160.698 219.906L161.349 221.119C161.231 221.354 161.097 221.591 160.944 221.831C160.798 222.071 160.613 222.294 160.391 222.499C160.174 222.698 159.907 222.862 159.591 222.991C159.274 223.114 158.891 223.176 158.439 223.176C157.854 223.176 157.314 223.056 156.822 222.815C156.336 222.575 155.946 222.241 155.653 221.813C155.36 221.38 155.214 220.882 155.214 220.319C155.214 219.827 155.302 219.388 155.478 219.001C155.659 218.614 155.932 218.286 156.295 218.017C156.658 217.747 157.121 217.542 157.684 217.401C158.246 217.261 158.908 217.19 159.67 217.19H160.944ZM169.224 220.891C169.499 220.891 169.733 220.841 169.927 220.741C170.126 220.636 170.275 220.489 170.375 220.302C170.48 220.108 170.53 219.877 170.524 219.607H173.311C173.316 220.322 173.141 220.949 172.783 221.488C172.432 222.021 171.951 222.438 171.342 222.736C170.738 223.029 170.056 223.176 169.294 223.176C168.55 223.176 167.899 223.056 167.343 222.815C166.786 222.569 166.32 222.229 165.945 221.796C165.576 221.356 165.298 220.844 165.11 220.258C164.929 219.672 164.838 219.036 164.838 218.351V218.148C164.838 217.463 164.929 216.827 165.11 216.241C165.298 215.649 165.576 215.137 165.945 214.703C166.32 214.264 166.783 213.924 167.334 213.684C167.891 213.438 168.538 213.314 169.276 213.314C170.067 213.314 170.765 213.464 171.368 213.763C171.978 214.062 172.455 214.495 172.801 215.063C173.146 215.632 173.316 216.32 173.311 217.129H170.524C170.53 216.842 170.486 216.584 170.393 216.355C170.299 216.127 170.152 215.945 169.953 215.811C169.76 215.67 169.511 215.6 169.206 215.6C168.901 215.6 168.655 215.667 168.468 215.802C168.28 215.937 168.137 216.124 168.037 216.364C167.943 216.599 167.879 216.868 167.844 217.173C167.814 217.478 167.8 217.803 167.8 218.148V218.351C167.8 218.702 167.814 219.033 167.844 219.344C167.879 219.648 167.946 219.918 168.046 220.152C168.146 220.381 168.289 220.562 168.477 220.697C168.664 220.826 168.913 220.891 169.224 220.891ZM179.586 213.49V215.547H173.855V213.49H179.586ZM175.06 211.126H178.021V219.897C178.021 220.149 178.051 220.346 178.109 220.486C178.168 220.621 178.268 220.718 178.408 220.776C178.555 220.829 178.748 220.855 178.988 220.855C179.158 220.855 179.299 220.853 179.41 220.847C179.521 220.835 179.627 220.82 179.727 220.803V222.921C179.475 223.003 179.211 223.064 178.936 223.105C178.66 223.152 178.367 223.176 178.057 223.176C177.424 223.176 176.882 223.076 176.431 222.877C175.985 222.678 175.646 222.364 175.411 221.937C175.177 221.509 175.06 220.952 175.06 220.267V211.126ZM196.074 210.203V223H192.998L188.472 215.037V223H185.387V210.203H188.472L192.998 218.166V210.203H196.074ZM202.824 220.609V216.689C202.824 216.42 202.786 216.188 202.71 215.995C202.634 215.802 202.514 215.652 202.35 215.547C202.186 215.436 201.966 215.38 201.69 215.38C201.468 215.38 201.277 215.418 201.119 215.494C200.961 215.57 200.841 215.685 200.759 215.837C200.677 215.989 200.636 216.183 200.636 216.417H197.674C197.674 215.978 197.771 215.57 197.964 215.195C198.163 214.814 198.444 214.483 198.808 214.202C199.177 213.921 199.616 213.704 200.126 213.552C200.642 213.394 201.216 213.314 201.849 213.314C202.604 213.314 203.278 213.44 203.87 213.692C204.468 213.944 204.939 214.322 205.285 214.826C205.631 215.324 205.804 215.951 205.804 216.707V220.601C205.804 221.222 205.839 221.693 205.909 222.016C205.979 222.332 206.079 222.61 206.208 222.851V223H203.237C203.097 222.707 202.991 222.35 202.921 221.928C202.856 221.5 202.824 221.061 202.824 220.609ZM203.185 217.19L203.202 218.772H201.893C201.617 218.772 201.383 218.811 201.189 218.887C201.002 218.963 200.85 219.068 200.732 219.203C200.621 219.332 200.539 219.479 200.486 219.643C200.439 219.807 200.416 219.979 200.416 220.161C200.416 220.337 200.457 220.495 200.539 220.636C200.627 220.771 200.744 220.876 200.891 220.952C201.037 221.028 201.201 221.066 201.383 221.066C201.711 221.066 201.989 221.005 202.218 220.882C202.452 220.753 202.631 220.598 202.754 220.416C202.877 220.234 202.938 220.064 202.938 219.906L203.589 221.119C203.472 221.354 203.337 221.591 203.185 221.831C203.038 222.071 202.854 222.294 202.631 222.499C202.414 222.698 202.147 222.862 201.831 222.991C201.515 223.114 201.131 223.176 200.68 223.176C200.094 223.176 199.555 223.056 199.062 222.815C198.576 222.575 198.187 222.241 197.894 221.813C197.601 221.38 197.454 220.882 197.454 220.319C197.454 219.827 197.542 219.388 197.718 219.001C197.899 218.614 198.172 218.286 198.535 218.017C198.898 217.747 199.361 217.542 199.924 217.401C200.486 217.261 201.148 217.19 201.91 217.19H203.185ZM212.457 213.49V215.547H206.727V213.49H212.457ZM207.931 211.126H210.893V219.897C210.893 220.149 210.922 220.346 210.98 220.486C211.039 220.621 211.139 220.718 211.279 220.776C211.426 220.829 211.619 220.855 211.859 220.855C212.029 220.855 212.17 220.853 212.281 220.847C212.393 220.835 212.498 220.82 212.598 220.803V222.921C212.346 223.003 212.082 223.064 211.807 223.105C211.531 223.152 211.238 223.176 210.928 223.176C210.295 223.176 209.753 223.076 209.302 222.877C208.856 222.678 208.517 222.364 208.282 221.937C208.048 221.509 207.931 220.952 207.931 220.267V211.126ZM216.764 213.49V223H213.793V213.49H216.764ZM213.617 211.038C213.617 210.616 213.77 210.271 214.074 210.001C214.379 209.731 214.774 209.597 215.261 209.597C215.747 209.597 216.143 209.731 216.447 210.001C216.752 210.271 216.904 210.616 216.904 211.038C216.904 211.46 216.752 211.806 216.447 212.075C216.143 212.345 215.747 212.479 215.261 212.479C214.774 212.479 214.379 212.345 214.074 212.075C213.77 211.806 213.617 211.46 213.617 211.038ZM222.02 220.97L223.892 213.49H227.012L223.9 223H222.055L222.02 220.97ZM220.912 213.49L222.758 220.97L222.74 223H220.886L217.783 213.49H220.912ZM232.373 223.176C231.6 223.176 230.908 223.056 230.299 222.815C229.689 222.569 229.174 222.232 228.752 221.805C228.336 221.377 228.017 220.885 227.794 220.328C227.577 219.771 227.469 219.183 227.469 218.562V218.228C227.469 217.53 227.565 216.886 227.759 216.294C227.952 215.696 228.239 215.175 228.62 214.729C229.001 214.284 229.479 213.938 230.053 213.692C230.627 213.44 231.295 213.314 232.057 213.314C232.73 213.314 233.334 213.423 233.867 213.64C234.4 213.856 234.852 214.167 235.221 214.571C235.596 214.976 235.88 215.465 236.073 216.039C236.272 216.613 236.372 217.258 236.372 217.973V219.177H228.603V217.322H233.48V217.094C233.486 216.777 233.431 216.508 233.313 216.285C233.202 216.062 233.038 215.893 232.821 215.775C232.604 215.658 232.341 215.6 232.03 215.6C231.708 215.6 231.441 215.67 231.23 215.811C231.025 215.951 230.864 216.145 230.747 216.391C230.636 216.631 230.557 216.909 230.51 217.226C230.463 217.542 230.439 217.876 230.439 218.228V218.562C230.439 218.913 230.486 219.232 230.58 219.52C230.68 219.807 230.82 220.053 231.002 220.258C231.189 220.457 231.412 220.612 231.67 220.724C231.934 220.835 232.232 220.891 232.566 220.891C232.971 220.891 233.369 220.814 233.762 220.662C234.154 220.51 234.491 220.258 234.772 219.906L236.117 221.506C235.924 221.781 235.648 222.048 235.291 222.306C234.939 222.563 234.518 222.774 234.025 222.938C233.533 223.097 232.982 223.176 232.373 223.176Z" fill="white"/>
<rect x="111" y="196" width="148" height="41" rx="3" stroke="#424242" stroke-width="4"/>
<rect x="279" y="196" width="130" height="41" rx="3" fill="#424242"/>
<path d="M310.883 220.627V223H304.062V220.627H310.883ZM305.161 210.203V223H302.076V210.203H305.161ZM310.004 215.283V217.577H304.062V215.283H310.004ZM310.909 210.203V212.585H304.062V210.203H310.909ZM314.521 213.49L315.857 216.109L317.237 213.49H320.313L317.817 218.122L320.445 223H317.343L315.857 220.188L314.381 223H311.278L313.906 218.122L311.419 213.49H314.521ZM324.277 215.318V226.656H321.315V213.49H324.075L324.277 215.318ZM330.113 218.131V218.315C330.113 219.007 330.034 219.648 329.876 220.24C329.718 220.832 329.483 221.348 329.173 221.787C328.862 222.227 328.476 222.569 328.013 222.815C327.556 223.056 327.025 223.176 326.422 223.176C325.854 223.176 325.364 223.05 324.954 222.798C324.544 222.546 324.201 222.197 323.926 221.752C323.65 221.307 323.428 220.797 323.258 220.223C323.088 219.648 322.953 219.042 322.854 218.403V218.166C322.953 217.48 323.088 216.845 323.258 216.259C323.428 215.667 323.65 215.151 323.926 214.712C324.201 214.272 324.541 213.93 324.945 213.684C325.355 213.438 325.845 213.314 326.413 213.314C327.017 213.314 327.547 213.429 328.004 213.657C328.467 213.886 328.854 214.214 329.164 214.642C329.48 215.063 329.718 215.57 329.876 216.162C330.034 216.754 330.113 217.41 330.113 218.131ZM327.151 218.315V218.131C327.151 217.762 327.125 217.425 327.072 217.12C327.02 216.81 326.935 216.54 326.817 216.312C326.706 216.083 326.557 215.907 326.369 215.784C326.182 215.661 325.95 215.6 325.675 215.6C325.358 215.6 325.092 215.649 324.875 215.749C324.664 215.843 324.494 215.989 324.365 216.188C324.242 216.382 324.154 216.625 324.102 216.918C324.055 217.205 324.034 217.542 324.04 217.929V218.649C324.028 219.095 324.072 219.487 324.172 219.827C324.271 220.161 324.444 220.422 324.69 220.609C324.937 220.797 325.271 220.891 325.692 220.891C325.974 220.891 326.208 220.826 326.396 220.697C326.583 220.562 326.732 220.378 326.844 220.144C326.955 219.903 327.034 219.628 327.081 219.317C327.128 219.007 327.151 218.673 327.151 218.315ZM334.42 215.846V223H331.458V213.49H334.227L334.42 215.846ZM337.232 213.42L337.18 216.171C337.062 216.159 336.904 216.145 336.705 216.127C336.506 216.109 336.339 216.101 336.204 216.101C335.858 216.101 335.56 216.142 335.308 216.224C335.062 216.3 334.856 216.417 334.692 216.575C334.534 216.728 334.417 216.921 334.341 217.155C334.271 217.39 334.238 217.662 334.244 217.973L333.708 217.621C333.708 216.982 333.77 216.402 333.893 215.881C334.021 215.354 334.203 214.899 334.438 214.519C334.672 214.132 334.956 213.836 335.29 213.631C335.624 213.42 335.999 213.314 336.415 213.314C336.562 213.314 336.705 213.323 336.846 213.341C336.992 213.358 337.121 213.385 337.232 213.42ZM342.682 223.176C341.908 223.176 341.217 223.056 340.607 222.815C339.998 222.569 339.482 222.232 339.061 221.805C338.645 221.377 338.325 220.885 338.103 220.328C337.886 219.771 337.777 219.183 337.777 218.562V218.228C337.777 217.53 337.874 216.886 338.067 216.294C338.261 215.696 338.548 215.175 338.929 214.729C339.31 214.284 339.787 213.938 340.361 213.692C340.936 213.44 341.604 213.314 342.365 213.314C343.039 213.314 343.643 213.423 344.176 213.64C344.709 213.856 345.16 214.167 345.529 214.571C345.904 214.976 346.188 215.465 346.382 216.039C346.581 216.613 346.681 217.258 346.681 217.973V219.177H338.911V217.322H343.789V217.094C343.795 216.777 343.739 216.508 343.622 216.285C343.511 216.062 343.347 215.893 343.13 215.775C342.913 215.658 342.649 215.6 342.339 215.6C342.017 215.6 341.75 215.67 341.539 215.811C341.334 215.951 341.173 216.145 341.056 216.391C340.944 216.631 340.865 216.909 340.818 217.226C340.771 217.542 340.748 217.876 340.748 218.228V218.562C340.748 218.913 340.795 219.232 340.889 219.52C340.988 219.807 341.129 220.053 341.311 220.258C341.498 220.457 341.721 220.612 341.979 220.724C342.242 220.835 342.541 220.891 342.875 220.891C343.279 220.891 343.678 220.814 344.07 220.662C344.463 220.51 344.8 220.258 345.081 219.906L346.426 221.506C346.232 221.781 345.957 222.048 345.6 222.306C345.248 222.563 344.826 222.774 344.334 222.938C343.842 223.097 343.291 223.176 342.682 223.176ZM352.868 220.328C352.868 220.164 352.812 220.023 352.701 219.906C352.596 219.783 352.408 219.672 352.139 219.572C351.869 219.467 351.491 219.361 351.005 219.256C350.542 219.156 350.105 219.024 349.695 218.86C349.291 218.696 348.937 218.497 348.632 218.263C348.327 218.028 348.087 217.75 347.911 217.428C347.741 217.105 347.656 216.736 347.656 216.32C347.656 215.916 347.741 215.535 347.911 215.178C348.087 214.814 348.342 214.495 348.676 214.22C349.016 213.938 349.429 213.719 349.915 213.561C350.401 213.396 350.955 213.314 351.576 213.314C352.432 213.314 353.17 213.446 353.791 213.71C354.412 213.968 354.89 214.331 355.224 214.8C355.563 215.263 355.733 215.799 355.733 216.408H352.771C352.771 216.168 352.73 215.963 352.648 215.793C352.572 215.623 352.446 215.494 352.271 215.406C352.095 215.312 351.86 215.266 351.567 215.266C351.362 215.266 351.175 215.304 351.005 215.38C350.841 215.456 350.709 215.562 350.609 215.696C350.51 215.831 350.46 215.989 350.46 216.171C350.46 216.3 350.489 216.417 350.548 216.522C350.612 216.622 350.709 216.716 350.838 216.804C350.967 216.886 351.131 216.962 351.33 217.032C351.529 217.097 351.77 217.155 352.051 217.208C352.689 217.325 353.287 217.492 353.844 217.709C354.4 217.926 354.852 218.233 355.197 218.632C355.549 219.03 355.725 219.566 355.725 220.24C355.725 220.662 355.628 221.052 355.435 221.409C355.241 221.761 354.963 222.071 354.6 222.341C354.236 222.604 353.8 222.81 353.29 222.956C352.78 223.103 352.206 223.176 351.567 223.176C350.659 223.176 349.892 223.015 349.265 222.692C348.638 222.364 348.163 221.954 347.841 221.462C347.524 220.964 347.366 220.46 347.366 219.95H350.126C350.138 220.243 350.208 220.483 350.337 220.671C350.472 220.858 350.65 220.996 350.873 221.084C351.096 221.172 351.354 221.216 351.646 221.216C351.916 221.216 352.139 221.178 352.314 221.102C352.496 221.025 352.634 220.923 352.728 220.794C352.821 220.659 352.868 220.504 352.868 220.328ZM362.097 220.328C362.097 220.164 362.041 220.023 361.93 219.906C361.824 219.783 361.637 219.672 361.367 219.572C361.098 219.467 360.72 219.361 360.233 219.256C359.771 219.156 359.334 219.024 358.924 218.86C358.52 218.696 358.165 218.497 357.86 218.263C357.556 218.028 357.315 217.75 357.14 217.428C356.97 217.105 356.885 216.736 356.885 216.32C356.885 215.916 356.97 215.535 357.14 215.178C357.315 214.814 357.57 214.495 357.904 214.22C358.244 213.938 358.657 213.719 359.144 213.561C359.63 213.396 360.184 213.314 360.805 213.314C361.66 213.314 362.398 213.446 363.02 213.71C363.641 213.968 364.118 214.331 364.452 214.8C364.792 215.263 364.962 215.799 364.962 216.408H362C362 216.168 361.959 215.963 361.877 215.793C361.801 215.623 361.675 215.494 361.499 215.406C361.323 215.312 361.089 215.266 360.796 215.266C360.591 215.266 360.403 215.304 360.233 215.38C360.069 215.456 359.938 215.562 359.838 215.696C359.738 215.831 359.688 215.989 359.688 216.171C359.688 216.3 359.718 216.417 359.776 216.522C359.841 216.622 359.938 216.716 360.066 216.804C360.195 216.886 360.359 216.962 360.559 217.032C360.758 217.097 360.998 217.155 361.279 217.208C361.918 217.325 362.516 217.492 363.072 217.709C363.629 217.926 364.08 218.233 364.426 218.632C364.777 219.03 364.953 219.566 364.953 220.24C364.953 220.662 364.856 221.052 364.663 221.409C364.47 221.761 364.191 222.071 363.828 222.341C363.465 222.604 363.028 222.81 362.519 222.956C362.009 223.103 361.435 223.176 360.796 223.176C359.888 223.176 359.12 223.015 358.493 222.692C357.866 222.364 357.392 221.954 357.069 221.462C356.753 220.964 356.595 220.46 356.595 219.95H359.354C359.366 220.243 359.437 220.483 359.565 220.671C359.7 220.858 359.879 220.996 360.102 221.084C360.324 221.172 360.582 221.216 360.875 221.216C361.145 221.216 361.367 221.178 361.543 221.102C361.725 221.025 361.862 220.923 361.956 220.794C362.05 220.659 362.097 220.504 362.097 220.328ZM371.571 218.983V210.203H374.647V218.983C374.647 219.839 374.451 220.58 374.059 221.207C373.672 221.834 373.145 222.32 372.477 222.666C371.814 223.006 371.07 223.176 370.244 223.176C369.389 223.176 368.627 223.032 367.959 222.745C367.297 222.458 366.775 222.016 366.395 221.418C366.02 220.82 365.832 220.059 365.832 219.133H368.926C368.926 219.566 368.976 219.906 369.075 220.152C369.175 220.393 369.321 220.562 369.515 220.662C369.714 220.756 369.957 220.803 370.244 220.803C370.525 220.803 370.763 220.732 370.956 220.592C371.155 220.445 371.308 220.237 371.413 219.968C371.519 219.692 371.571 219.364 371.571 218.983ZM383.199 219.599C383.199 219.399 383.17 219.221 383.111 219.062C383.053 218.898 382.944 218.746 382.786 218.605C382.628 218.465 382.399 218.324 382.101 218.184C381.808 218.037 381.421 217.885 380.94 217.727C380.378 217.539 379.836 217.328 379.314 217.094C378.793 216.854 378.327 216.575 377.917 216.259C377.507 215.937 377.182 215.562 376.941 215.134C376.701 214.7 376.581 214.196 376.581 213.622C376.581 213.071 376.704 212.576 376.95 212.137C377.196 211.691 377.539 211.313 377.979 211.003C378.424 210.687 378.945 210.446 379.543 210.282C380.141 210.112 380.794 210.027 381.503 210.027C382.44 210.027 383.267 210.191 383.981 210.52C384.702 210.842 385.265 211.302 385.669 211.899C386.079 212.491 386.284 213.191 386.284 214H383.217C383.217 213.678 383.149 213.394 383.015 213.147C382.886 212.901 382.689 212.708 382.426 212.567C382.162 212.427 381.831 212.356 381.433 212.356C381.046 212.356 380.721 212.415 380.457 212.532C380.193 212.649 379.994 212.808 379.859 213.007C379.725 213.2 379.657 213.414 379.657 213.648C379.657 213.842 379.71 214.018 379.815 214.176C379.927 214.328 380.082 214.472 380.281 214.606C380.486 214.741 380.732 214.87 381.02 214.993C381.312 215.116 381.641 215.236 382.004 215.354C382.684 215.57 383.287 215.813 383.814 216.083C384.348 216.347 384.796 216.648 385.159 216.988C385.528 217.322 385.807 217.703 385.994 218.131C386.188 218.559 386.284 219.042 386.284 219.581C386.284 220.155 386.173 220.665 385.95 221.11C385.728 221.556 385.408 221.934 384.992 222.244C384.576 222.549 384.078 222.78 383.498 222.938C382.918 223.097 382.271 223.176 381.556 223.176C380.899 223.176 380.252 223.094 379.613 222.93C378.98 222.76 378.406 222.502 377.891 222.156C377.375 221.805 376.962 221.356 376.651 220.812C376.347 220.261 376.194 219.607 376.194 218.852H379.288C379.288 219.227 379.338 219.543 379.438 219.801C379.537 220.059 379.684 220.267 379.877 220.425C380.07 220.577 380.308 220.688 380.589 220.759C380.87 220.823 381.192 220.855 381.556 220.855C381.948 220.855 382.265 220.8 382.505 220.688C382.745 220.571 382.921 220.419 383.032 220.231C383.144 220.038 383.199 219.827 383.199 219.599Z" fill="white"/>
<rect x="279" y="196" width="130" height="41" rx="3" stroke="#424242" stroke-width="4"/>
<rect x="429" y="196" width="109" height="41" rx="3" fill="#424242"/>
<path d="M463.118 210.203V223H460.042L455.516 215.037V223H452.431V210.203H455.516L460.042 218.166V210.203H463.118ZM464.56 218.342V218.157C464.56 217.46 464.659 216.818 464.858 216.232C465.058 215.641 465.351 215.128 465.737 214.694C466.124 214.261 466.602 213.924 467.17 213.684C467.738 213.438 468.395 213.314 469.139 213.314C469.889 213.314 470.548 213.438 471.116 213.684C471.69 213.924 472.171 214.261 472.558 214.694C472.944 215.128 473.237 215.641 473.437 216.232C473.636 216.818 473.735 217.46 473.735 218.157V218.342C473.735 219.033 473.636 219.675 473.437 220.267C473.237 220.853 472.944 221.365 472.558 221.805C472.171 222.238 471.693 222.575 471.125 222.815C470.557 223.056 469.9 223.176 469.156 223.176C468.412 223.176 467.753 223.056 467.179 222.815C466.604 222.575 466.124 222.238 465.737 221.805C465.351 221.365 465.058 220.853 464.858 220.267C464.659 219.675 464.56 219.033 464.56 218.342ZM467.521 218.157V218.342C467.521 218.699 467.548 219.033 467.601 219.344C467.653 219.654 467.741 219.927 467.864 220.161C467.987 220.39 468.154 220.568 468.365 220.697C468.576 220.826 468.84 220.891 469.156 220.891C469.467 220.891 469.725 220.826 469.93 220.697C470.141 220.568 470.308 220.39 470.431 220.161C470.554 219.927 470.642 219.654 470.694 219.344C470.747 219.033 470.773 218.699 470.773 218.342V218.157C470.773 217.812 470.747 217.486 470.694 217.182C470.642 216.871 470.554 216.599 470.431 216.364C470.308 216.124 470.141 215.937 469.93 215.802C469.719 215.667 469.455 215.6 469.139 215.6C468.828 215.6 468.567 215.667 468.356 215.802C468.151 215.937 467.987 216.124 467.864 216.364C467.741 216.599 467.653 216.871 467.601 217.182C467.548 217.486 467.521 217.812 467.521 218.157ZM480.521 220.82V209.5H483.5V223H480.828L480.521 220.82ZM474.685 218.359V218.175C474.685 217.454 474.764 216.798 474.922 216.206C475.08 215.608 475.314 215.096 475.625 214.668C475.936 214.234 476.322 213.9 476.785 213.666C477.248 213.432 477.781 213.314 478.385 213.314C478.924 213.314 479.396 213.44 479.8 213.692C480.204 213.938 480.55 214.284 480.837 214.729C481.124 215.175 481.358 215.696 481.54 216.294C481.722 216.886 481.859 217.524 481.953 218.21V218.43C481.859 219.074 481.722 219.684 481.54 220.258C481.358 220.826 481.124 221.33 480.837 221.77C480.55 222.209 480.201 222.555 479.791 222.807C479.387 223.053 478.912 223.176 478.367 223.176C477.764 223.176 477.23 223.056 476.768 222.815C476.311 222.575 475.927 222.238 475.616 221.805C475.312 221.371 475.08 220.861 474.922 220.275C474.764 219.689 474.685 219.051 474.685 218.359ZM477.646 218.175V218.359C477.646 218.717 477.67 219.048 477.717 219.353C477.764 219.657 477.843 219.927 477.954 220.161C478.071 220.39 478.224 220.568 478.411 220.697C478.604 220.826 478.842 220.891 479.123 220.891C479.504 220.891 479.817 220.8 480.063 220.618C480.315 220.437 480.5 220.179 480.617 219.845C480.74 219.511 480.793 219.118 480.775 218.667V217.973C480.787 217.586 480.761 217.246 480.696 216.953C480.632 216.654 480.529 216.405 480.389 216.206C480.254 216.007 480.081 215.857 479.87 215.758C479.665 215.652 479.422 215.6 479.141 215.6C478.865 215.6 478.631 215.664 478.438 215.793C478.25 215.922 478.098 216.104 477.98 216.338C477.863 216.566 477.778 216.839 477.726 217.155C477.673 217.466 477.646 217.806 477.646 218.175ZM489.784 223.176C489.011 223.176 488.319 223.056 487.71 222.815C487.101 222.569 486.585 222.232 486.163 221.805C485.747 221.377 485.428 220.885 485.205 220.328C484.988 219.771 484.88 219.183 484.88 218.562V218.228C484.88 217.53 484.977 216.886 485.17 216.294C485.363 215.696 485.65 215.175 486.031 214.729C486.412 214.284 486.89 213.938 487.464 213.692C488.038 213.44 488.706 213.314 489.468 213.314C490.142 213.314 490.745 213.423 491.278 213.64C491.812 213.856 492.263 214.167 492.632 214.571C493.007 214.976 493.291 215.465 493.484 216.039C493.684 216.613 493.783 217.258 493.783 217.973V219.177H486.014V217.322H490.892V217.094C490.897 216.777 490.842 216.508 490.725 216.285C490.613 216.062 490.449 215.893 490.232 215.775C490.016 215.658 489.752 215.6 489.441 215.6C489.119 215.6 488.853 215.67 488.642 215.811C488.437 215.951 488.275 216.145 488.158 216.391C488.047 216.631 487.968 216.909 487.921 217.226C487.874 217.542 487.851 217.876 487.851 218.228V218.562C487.851 218.913 487.897 219.232 487.991 219.52C488.091 219.807 488.231 220.053 488.413 220.258C488.601 220.457 488.823 220.612 489.081 220.724C489.345 220.835 489.644 220.891 489.978 220.891C490.382 220.891 490.78 220.814 491.173 220.662C491.565 220.51 491.902 220.258 492.184 219.906L493.528 221.506C493.335 221.781 493.06 222.048 492.702 222.306C492.351 222.563 491.929 222.774 491.437 222.938C490.944 223.097 490.394 223.176 489.784 223.176ZM500.217 218.983V210.203H503.293V218.983C503.293 219.839 503.097 220.58 502.704 221.207C502.317 221.834 501.79 222.32 501.122 222.666C500.46 223.006 499.716 223.176 498.89 223.176C498.034 223.176 497.272 223.032 496.604 222.745C495.942 222.458 495.421 222.016 495.04 221.418C494.665 220.82 494.478 220.059 494.478 219.133H497.571C497.571 219.566 497.621 219.906 497.721 220.152C497.82 220.393 497.967 220.562 498.16 220.662C498.359 220.756 498.603 220.803 498.89 220.803C499.171 220.803 499.408 220.732 499.602 220.592C499.801 220.445 499.953 220.237 500.059 219.968C500.164 219.692 500.217 219.364 500.217 218.983ZM511.845 219.599C511.845 219.399 511.815 219.221 511.757 219.062C511.698 218.898 511.59 218.746 511.432 218.605C511.273 218.465 511.045 218.324 510.746 218.184C510.453 218.037 510.066 217.885 509.586 217.727C509.023 217.539 508.481 217.328 507.96 217.094C507.438 216.854 506.973 216.575 506.562 216.259C506.152 215.937 505.827 215.562 505.587 215.134C505.347 214.7 505.227 214.196 505.227 213.622C505.227 213.071 505.35 212.576 505.596 212.137C505.842 211.691 506.185 211.313 506.624 211.003C507.069 210.687 507.591 210.446 508.188 210.282C508.786 210.112 509.439 210.027 510.148 210.027C511.086 210.027 511.912 210.191 512.627 210.52C513.348 210.842 513.91 211.302 514.314 211.899C514.725 212.491 514.93 213.191 514.93 214H511.862C511.862 213.678 511.795 213.394 511.66 213.147C511.531 212.901 511.335 212.708 511.071 212.567C510.808 212.427 510.477 212.356 510.078 212.356C509.691 212.356 509.366 212.415 509.103 212.532C508.839 212.649 508.64 212.808 508.505 213.007C508.37 213.2 508.303 213.414 508.303 213.648C508.303 213.842 508.355 214.018 508.461 214.176C508.572 214.328 508.728 214.472 508.927 214.606C509.132 214.741 509.378 214.87 509.665 214.993C509.958 215.116 510.286 215.236 510.649 215.354C511.329 215.57 511.933 215.813 512.46 216.083C512.993 216.347 513.441 216.648 513.805 216.988C514.174 217.322 514.452 217.703 514.64 218.131C514.833 218.559 514.93 219.042 514.93 219.581C514.93 220.155 514.818 220.665 514.596 221.11C514.373 221.556 514.054 221.934 513.638 222.244C513.222 222.549 512.724 222.78 512.144 222.938C511.563 223.097 510.916 223.176 510.201 223.176C509.545 223.176 508.897 223.094 508.259 222.93C507.626 222.76 507.052 222.502 506.536 222.156C506.021 221.805 505.607 221.356 505.297 220.812C504.992 220.261 504.84 219.607 504.84 218.852H507.934C507.934 219.227 507.983 219.543 508.083 219.801C508.183 220.059 508.329 220.267 508.522 220.425C508.716 220.577 508.953 220.688 509.234 220.759C509.516 220.823 509.838 220.855 510.201 220.855C510.594 220.855 510.91 220.8 511.15 220.688C511.391 220.571 511.566 220.419 511.678 220.231C511.789 220.038 511.845 219.827 511.845 219.599Z" fill="white"/>
<rect x="429" y="196" width="109" height="41" rx="3" stroke="#424242" stroke-width="4"/>
<rect x="558" y="196" width="109" height="41" rx="3" fill="#424242"/>
<path d="M586.678 212.893L583.558 223H580.244L584.946 210.203H587.047L586.678 212.893ZM589.262 223L586.133 212.893L585.729 210.203H587.855L592.584 223H589.262ZM589.139 218.228V220.609H582.573V218.228H589.139ZM596.372 215.846V223H593.41V213.49H596.179L596.372 215.846ZM599.185 213.42L599.132 216.171C599.015 216.159 598.856 216.145 598.657 216.127C598.458 216.109 598.291 216.101 598.156 216.101C597.811 216.101 597.512 216.142 597.26 216.224C597.014 216.3 596.809 216.417 596.645 216.575C596.486 216.728 596.369 216.921 596.293 217.155C596.223 217.39 596.19 217.662 596.196 217.973L595.66 217.621C595.66 216.982 595.722 216.402 595.845 215.881C595.974 215.354 596.155 214.899 596.39 214.519C596.624 214.132 596.908 213.836 597.242 213.631C597.576 213.42 597.951 213.314 598.367 213.314C598.514 213.314 598.657 213.323 598.798 213.341C598.944 213.358 599.073 213.385 599.185 213.42ZM605.495 220.82V209.5H608.475V223H605.803L605.495 220.82ZM599.659 218.359V218.175C599.659 217.454 599.738 216.798 599.896 216.206C600.055 215.608 600.289 215.096 600.6 214.668C600.91 214.234 601.297 213.9 601.76 213.666C602.223 213.432 602.756 213.314 603.359 213.314C603.898 213.314 604.37 213.44 604.774 213.692C605.179 213.938 605.524 214.284 605.812 214.729C606.099 215.175 606.333 215.696 606.515 216.294C606.696 216.886 606.834 217.524 606.928 218.21V218.43C606.834 219.074 606.696 219.684 606.515 220.258C606.333 220.826 606.099 221.33 605.812 221.77C605.524 222.209 605.176 222.555 604.766 222.807C604.361 223.053 603.887 223.176 603.342 223.176C602.738 223.176 602.205 223.056 601.742 222.815C601.285 222.575 600.901 222.238 600.591 221.805C600.286 221.371 600.055 220.861 599.896 220.275C599.738 219.689 599.659 219.051 599.659 218.359ZM602.621 218.175V218.359C602.621 218.717 602.645 219.048 602.691 219.353C602.738 219.657 602.817 219.927 602.929 220.161C603.046 220.39 603.198 220.568 603.386 220.697C603.579 220.826 603.816 220.891 604.098 220.891C604.479 220.891 604.792 220.8 605.038 220.618C605.29 220.437 605.475 220.179 605.592 219.845C605.715 219.511 605.768 219.118 605.75 218.667V217.973C605.762 217.586 605.735 217.246 605.671 216.953C605.606 216.654 605.504 216.405 605.363 216.206C605.229 216.007 605.056 215.857 604.845 215.758C604.64 215.652 604.396 215.6 604.115 215.6C603.84 215.6 603.605 215.664 603.412 215.793C603.225 215.922 603.072 216.104 602.955 216.338C602.838 216.566 602.753 216.839 602.7 217.155C602.647 217.466 602.621 217.806 602.621 218.175ZM615.708 220.688V213.49H618.679V223H615.901L615.708 220.688ZM615.989 218.755L616.763 218.737C616.763 219.376 616.687 219.968 616.534 220.513C616.382 221.052 616.156 221.521 615.857 221.919C615.564 222.317 615.201 222.628 614.768 222.851C614.34 223.067 613.845 223.176 613.282 223.176C612.813 223.176 612.383 223.111 611.99 222.982C611.604 222.848 611.27 222.64 610.988 222.358C610.707 222.071 610.487 221.705 610.329 221.26C610.177 220.809 610.101 220.27 610.101 219.643V213.49H613.062V219.66C613.062 219.871 613.089 220.053 613.142 220.205C613.194 220.357 613.271 220.486 613.37 220.592C613.47 220.691 613.593 220.768 613.739 220.82C613.892 220.867 614.064 220.891 614.258 220.891C614.703 220.891 615.052 220.797 615.304 220.609C615.556 220.422 615.731 220.167 615.831 219.845C615.937 219.522 615.989 219.159 615.989 218.755ZM623.442 213.49V223H620.472V213.49H623.442ZM620.296 211.038C620.296 210.616 620.448 210.271 620.753 210.001C621.058 209.731 621.453 209.597 621.939 209.597C622.426 209.597 622.821 209.731 623.126 210.001C623.431 210.271 623.583 210.616 623.583 211.038C623.583 211.46 623.431 211.806 623.126 212.075C622.821 212.345 622.426 212.479 621.939 212.479C621.453 212.479 621.058 212.345 620.753 212.075C620.448 211.806 620.296 211.46 620.296 211.038ZM628.18 215.521V223H625.218V213.49H627.995L628.18 215.521ZM627.828 217.92L627.134 217.938C627.134 217.211 627.222 216.563 627.397 215.995C627.573 215.421 627.822 214.935 628.145 214.536C628.467 214.138 628.851 213.836 629.296 213.631C629.747 213.42 630.248 213.314 630.799 213.314C631.238 213.314 631.64 213.379 632.003 213.508C632.372 213.637 632.688 213.845 632.952 214.132C633.222 214.419 633.427 214.8 633.567 215.274C633.714 215.743 633.787 216.323 633.787 217.015V223H630.808V217.006C630.808 216.625 630.755 216.335 630.649 216.136C630.544 215.931 630.392 215.79 630.192 215.714C629.993 215.638 629.75 215.6 629.463 215.6C629.158 215.6 628.9 215.658 628.689 215.775C628.479 215.893 628.309 216.057 628.18 216.268C628.057 216.473 627.966 216.716 627.907 216.997C627.854 217.278 627.828 217.586 627.828 217.92ZM635.062 218.342V218.157C635.062 217.46 635.161 216.818 635.36 216.232C635.56 215.641 635.853 215.128 636.239 214.694C636.626 214.261 637.104 213.924 637.672 213.684C638.24 213.438 638.896 213.314 639.641 213.314C640.391 213.314 641.05 213.438 641.618 213.684C642.192 213.924 642.673 214.261 643.06 214.694C643.446 215.128 643.739 215.641 643.938 216.232C644.138 216.818 644.237 217.46 644.237 218.157V218.342C644.237 219.033 644.138 219.675 643.938 220.267C643.739 220.853 643.446 221.365 643.06 221.805C642.673 222.238 642.195 222.575 641.627 222.815C641.059 223.056 640.402 223.176 639.658 223.176C638.914 223.176 638.255 223.056 637.681 222.815C637.106 222.575 636.626 222.238 636.239 221.805C635.853 221.365 635.56 220.853 635.36 220.267C635.161 219.675 635.062 219.033 635.062 218.342ZM638.023 218.157V218.342C638.023 218.699 638.05 219.033 638.103 219.344C638.155 219.654 638.243 219.927 638.366 220.161C638.489 220.39 638.656 220.568 638.867 220.697C639.078 220.826 639.342 220.891 639.658 220.891C639.969 220.891 640.227 220.826 640.432 220.697C640.643 220.568 640.81 220.39 640.933 220.161C641.056 219.927 641.144 219.654 641.196 219.344C641.249 219.033 641.275 218.699 641.275 218.342V218.157C641.275 217.812 641.249 217.486 641.196 217.182C641.144 216.871 641.056 216.599 640.933 216.364C640.81 216.124 640.643 215.937 640.432 215.802C640.221 215.667 639.957 215.6 639.641 215.6C639.33 215.6 639.069 215.667 638.858 215.802C638.653 215.937 638.489 216.124 638.366 216.364C638.243 216.599 638.155 216.871 638.103 217.182C638.05 217.486 638.023 217.812 638.023 218.157Z" fill="white"/>
<rect x="558" y="196" width="109" height="41" rx="3" stroke="#424242" stroke-width="4"/>
<rect x="687" y="196" width="104" height="41" rx="3" fill="#424242"/>
<path d="M720.921 216.347V216.865C720.921 217.844 720.783 218.723 720.508 219.502C720.238 220.275 719.854 220.938 719.356 221.488C718.858 222.033 718.27 222.452 717.59 222.745C716.91 223.032 716.16 223.176 715.34 223.176C714.514 223.176 713.758 223.032 713.072 222.745C712.393 222.452 711.801 222.033 711.297 221.488C710.799 220.938 710.412 220.275 710.137 219.502C709.867 218.723 709.732 217.844 709.732 216.865V216.347C709.732 215.368 709.867 214.489 710.137 213.71C710.412 212.931 710.796 212.269 711.288 211.724C711.786 211.173 712.375 210.754 713.055 210.467C713.74 210.174 714.496 210.027 715.322 210.027C716.143 210.027 716.893 210.174 717.572 210.467C718.258 210.754 718.85 211.173 719.348 211.724C719.846 212.269 720.232 212.931 720.508 213.71C720.783 214.489 720.921 215.368 720.921 216.347ZM717.792 216.865V216.329C717.792 215.696 717.736 215.14 717.625 214.659C717.52 214.173 717.361 213.766 717.15 213.438C716.939 213.109 716.679 212.863 716.368 212.699C716.063 212.529 715.715 212.444 715.322 212.444C714.912 212.444 714.555 212.529 714.25 212.699C713.945 212.863 713.69 213.109 713.485 213.438C713.28 213.766 713.125 214.173 713.02 214.659C712.92 215.14 712.87 215.696 712.87 216.329V216.865C712.87 217.492 712.92 218.049 713.02 218.535C713.125 219.016 713.28 219.423 713.485 219.757C713.696 220.091 713.954 220.343 714.259 220.513C714.569 220.683 714.93 220.768 715.34 220.768C715.732 220.768 716.081 220.683 716.386 220.513C716.69 220.343 716.945 220.091 717.15 219.757C717.361 219.423 717.52 219.016 717.625 218.535C717.736 218.049 717.792 217.492 717.792 216.865ZM725.368 215.318V226.656H722.406V213.49H725.166L725.368 215.318ZM731.204 218.131V218.315C731.204 219.007 731.125 219.648 730.967 220.24C730.809 220.832 730.574 221.348 730.264 221.787C729.953 222.227 729.566 222.569 729.104 222.815C728.646 223.056 728.116 223.176 727.513 223.176C726.944 223.176 726.455 223.05 726.045 222.798C725.635 222.546 725.292 222.197 725.017 221.752C724.741 221.307 724.519 220.797 724.349 220.223C724.179 219.648 724.044 219.042 723.944 218.403V218.166C724.044 217.48 724.179 216.845 724.349 216.259C724.519 215.667 724.741 215.151 725.017 214.712C725.292 214.272 725.632 213.93 726.036 213.684C726.446 213.438 726.936 213.314 727.504 213.314C728.107 213.314 728.638 213.429 729.095 213.657C729.558 213.886 729.944 214.214 730.255 214.642C730.571 215.063 730.809 215.57 730.967 216.162C731.125 216.754 731.204 217.41 731.204 218.131ZM728.242 218.315V218.131C728.242 217.762 728.216 217.425 728.163 217.12C728.11 216.81 728.025 216.54 727.908 216.312C727.797 216.083 727.647 215.907 727.46 215.784C727.272 215.661 727.041 215.6 726.766 215.6C726.449 215.6 726.183 215.649 725.966 215.749C725.755 215.843 725.585 215.989 725.456 216.188C725.333 216.382 725.245 216.625 725.192 216.918C725.146 217.205 725.125 217.542 725.131 217.929V218.649C725.119 219.095 725.163 219.487 725.263 219.827C725.362 220.161 725.535 220.422 725.781 220.609C726.027 220.797 726.361 220.891 726.783 220.891C727.064 220.891 727.299 220.826 727.486 220.697C727.674 220.562 727.823 220.378 727.935 220.144C728.046 219.903 728.125 219.628 728.172 219.317C728.219 219.007 728.242 218.673 728.242 218.315ZM737.128 223.176C736.354 223.176 735.663 223.056 735.054 222.815C734.444 222.569 733.929 222.232 733.507 221.805C733.091 221.377 732.771 220.885 732.549 220.328C732.332 219.771 732.224 219.183 732.224 218.562V218.228C732.224 217.53 732.32 216.886 732.514 216.294C732.707 215.696 732.994 215.175 733.375 214.729C733.756 214.284 734.233 213.938 734.808 213.692C735.382 213.44 736.05 213.314 736.812 213.314C737.485 213.314 738.089 213.423 738.622 213.64C739.155 213.856 739.606 214.167 739.976 214.571C740.351 214.976 740.635 215.465 740.828 216.039C741.027 216.613 741.127 217.258 741.127 217.973V219.177H733.357V217.322H738.235V217.094C738.241 216.777 738.186 216.508 738.068 216.285C737.957 216.062 737.793 215.893 737.576 215.775C737.359 215.658 737.096 215.6 736.785 215.6C736.463 215.6 736.196 215.67 735.985 215.811C735.78 215.951 735.619 216.145 735.502 216.391C735.391 216.631 735.312 216.909 735.265 217.226C735.218 217.542 735.194 217.876 735.194 218.228V218.562C735.194 218.913 735.241 219.232 735.335 219.52C735.435 219.807 735.575 220.053 735.757 220.258C735.944 220.457 736.167 220.612 736.425 220.724C736.688 220.835 736.987 220.891 737.321 220.891C737.726 220.891 738.124 220.814 738.517 220.662C738.909 220.51 739.246 220.258 739.527 219.906L740.872 221.506C740.679 221.781 740.403 222.048 740.046 222.306C739.694 222.563 739.272 222.774 738.78 222.938C738.288 223.097 737.737 223.176 737.128 223.176ZM745.24 215.521V223H742.278V213.49H745.056L745.24 215.521ZM744.889 217.92L744.194 217.938C744.194 217.211 744.282 216.563 744.458 215.995C744.634 215.421 744.883 214.935 745.205 214.536C745.527 214.138 745.911 213.836 746.356 213.631C746.808 213.42 747.309 213.314 747.859 213.314C748.299 213.314 748.7 213.379 749.063 213.508C749.433 213.637 749.749 213.845 750.013 214.132C750.282 214.419 750.487 214.8 750.628 215.274C750.774 215.743 750.848 216.323 750.848 217.015V223H747.868V217.006C747.868 216.625 747.815 216.335 747.71 216.136C747.604 215.931 747.452 215.79 747.253 215.714C747.054 215.638 746.811 215.6 746.523 215.6C746.219 215.6 745.961 215.658 745.75 215.775C745.539 215.893 745.369 216.057 745.24 216.268C745.117 216.473 745.026 216.716 744.968 216.997C744.915 217.278 744.889 217.586 744.889 217.92ZM758.055 212.893L754.935 223H751.621L756.323 210.203H758.424L758.055 212.893ZM760.639 223L757.51 212.893L757.105 210.203H759.232L763.961 223H760.639ZM760.516 218.228V220.609H753.95V218.228H760.516ZM767.89 213.49V223H764.919V213.49H767.89ZM764.743 211.038C764.743 210.616 764.896 210.271 765.2 210.001C765.505 209.731 765.9 209.597 766.387 209.597C766.873 209.597 767.269 209.731 767.573 210.001C767.878 210.271 768.03 210.616 768.03 211.038C768.03 211.46 767.878 211.806 767.573 212.075C767.269 212.345 766.873 212.479 766.387 212.479C765.9 212.479 765.505 212.345 765.2 212.075C764.896 211.806 764.743 211.46 764.743 211.038Z" fill="white"/>
<rect x="687" y="196" width="104" height="41" rx="3" stroke="#424242" stroke-width="4"/>
<g clip-path="url(#clip0_3_61)">
<path d="M1066 0H1348C1356.28 0 1363 6.71573 1363 15V282C1363 290.284 1356.28 297 1348 297H1066V0Z" fill="white"/>
<rect x="1066" width="297" height="297" rx="60.75" fill="white"/>
<path d="M1186.92 68.6266C1186.92 68.6266 1191.53 54.2133 1185.33 46.6517C1180.29 40.4991 1163.91 35.0964 1161.97 36.8472C1161.88 36.9092 1161.8 36.96 1161.73 37.0031C1161.53 37.137 1161.44 37.1962 1161.42 37.2841C1161.4 37.3859 1161.55 37.6117 1161.67 37.7978C1161.72 37.8729 1161.77 37.9415 1161.8 37.9929C1162.37 39.0196 1162.18 41.0466 1161.93 43.631C1161.43 48.8088 1160.71 56.2238 1165.53 62.3127C1171.37 69.7098 1186.92 68.6266 1186.92 68.6266Z" fill="#88C346"/>
<path d="M1186.92 68.6266C1186.92 68.6266 1191.53 54.2133 1185.33 46.6517C1180.29 40.4991 1163.91 35.0964 1161.97 36.8472C1161.88 36.9092 1161.8 36.96 1161.73 37.0031C1161.53 37.137 1161.44 37.1962 1161.42 37.2841C1161.4 37.3859 1161.55 37.6117 1161.67 37.7978C1161.72 37.8729 1161.77 37.9415 1161.8 37.9929C1162.37 39.0196 1162.18 41.0466 1161.93 43.631C1161.43 48.8088 1160.71 56.2238 1165.53 62.3127C1171.37 69.7098 1186.92 68.6266 1186.92 68.6266Z" stroke="black"/>
<path d="M1199.4 127.86C1199.4 127.86 1209.59 101.138 1198.97 88.9329C1190.32 79.0019 1160.55 72.7981 1156.76 76.3344C1156.58 76.4645 1156.43 76.5718 1156.3 76.6628C1155.9 76.9455 1155.72 77.0705 1155.68 77.2313C1155.63 77.4176 1155.89 77.7891 1156.1 78.0953C1156.18 78.2188 1156.26 78.3317 1156.31 78.4175C1157.25 80.1312 1156.66 83.7939 1155.9 88.4635C1154.39 97.8194 1152.22 111.218 1160.45 121.083C1170.46 133.067 1199.4 127.86 1199.4 127.86Z" fill="#A7C841"/>
<path d="M1199.4 127.86C1199.4 127.86 1209.59 101.138 1198.97 88.9329C1190.32 79.0019 1160.55 72.7981 1156.76 76.3344C1156.58 76.4645 1156.43 76.5718 1156.3 76.6628C1155.9 76.9455 1155.72 77.0705 1155.68 77.2313C1155.63 77.4176 1155.89 77.7891 1156.1 78.0953C1156.18 78.2188 1156.26 78.3317 1156.31 78.4175C1157.25 80.1312 1156.66 83.7939 1155.9 88.4635C1154.39 97.8194 1152.22 111.218 1160.45 121.083C1170.46 133.067 1199.4 127.86 1199.4 127.86Z" stroke="black"/>
<path d="M1162.9 128.621C1162.9 128.621 1139.19 114.356 1125.71 122.395C1114.74 128.935 1103.66 156.219 1106.37 160.439C1106.46 160.629 1106.54 160.792 1106.6 160.929C1106.8 161.357 1106.89 161.545 1107.04 161.615C1107.21 161.695 1107.61 161.515 1107.93 161.367C1108.07 161.307 1108.19 161.252 1108.28 161.222C1110.08 160.614 1113.46 161.804 1117.79 163.321C1126.44 166.361 1138.84 170.713 1149.67 164.555C1162.84 157.074 1162.9 128.621 1162.9 128.621Z" fill="#6CBB0D"/>
<path d="M1162.9 128.621C1162.9 128.621 1139.19 114.356 1125.71 122.395C1114.74 128.935 1103.66 156.219 1106.37 160.439C1106.46 160.629 1106.54 160.792 1106.6 160.929C1106.8 161.357 1106.89 161.545 1107.04 161.615C1107.21 161.695 1107.61 161.515 1107.93 161.367C1108.07 161.307 1108.19 161.252 1108.28 161.222C1110.08 160.614 1113.46 161.804 1117.79 163.321C1126.44 166.361 1138.84 170.713 1149.67 164.555C1162.84 157.074 1162.9 128.621 1162.9 128.621Z" stroke="black"/>
<path d="M1263.29 152.163C1263.29 152.163 1258.81 175.41 1269.47 184.553C1278.14 191.992 1303.81 194.289 1306.44 190.976C1306.57 190.851 1306.68 190.747 1306.77 190.659C1307.06 190.385 1307.19 190.263 1307.2 190.125C1307.21 189.965 1306.95 189.68 1306.72 189.446C1306.64 189.351 1306.55 189.264 1306.5 189.197C1305.46 187.861 1305.41 184.752 1305.34 180.789C1305.2 172.847 1305.01 161.475 1296.69 154.051C1286.58 145.032 1263.29 152.163 1263.29 152.163Z" fill="#88C346"/>
<path d="M1263.29 152.163C1263.29 152.163 1258.81 175.41 1269.47 184.553C1278.14 191.992 1303.81 194.289 1306.44 190.976C1306.57 190.851 1306.68 190.747 1306.77 190.659C1307.06 190.385 1307.19 190.263 1307.2 190.125C1307.21 189.965 1306.95 189.68 1306.72 189.446C1306.64 189.351 1306.55 189.264 1306.5 189.197C1305.46 187.861 1305.41 184.752 1305.34 180.789C1305.2 172.847 1305.01 161.475 1296.69 154.051C1286.58 145.032 1263.29 152.163 1263.29 152.163Z" stroke="black"/>
<path d="M1284.63 102.4C1284.63 102.4 1300.61 107.941 1308.39 101.3C1314.72 95.8971 1319.44 77.9031 1317.4 75.7004C1317.33 75.5969 1317.26 75.5085 1317.21 75.4336C1317.05 75.2008 1316.98 75.0978 1316.89 75.0749C1316.77 75.0483 1316.54 75.2098 1316.35 75.3428C1316.27 75.3965 1316.2 75.4455 1316.14 75.4758C1315.07 76.0797 1312.85 75.8024 1310.03 75.449C1304.37 74.7408 1296.26 73.7267 1289.98 78.8803C1282.36 85.1412 1284.63 102.4 1284.63 102.4Z" fill="#88C346"/>
<path d="M1284.63 102.4C1284.63 102.4 1300.61 107.941 1308.39 101.3C1314.72 95.8971 1319.44 77.9031 1317.4 75.7004C1317.33 75.5969 1317.26 75.5085 1317.21 75.4336C1317.05 75.2008 1316.98 75.0978 1316.89 75.0749C1316.77 75.0483 1316.54 75.2098 1316.35 75.3428C1316.27 75.3965 1316.2 75.4455 1316.14 75.4758C1315.07 76.0797 1312.85 75.8024 1310.03 75.449C1304.37 74.7408 1296.26 73.7267 1289.98 78.8803C1282.36 85.1412 1284.63 102.4 1284.63 102.4Z" stroke="black"/>
<path d="M1162.33 169.475C1162.33 169.475 1145.18 169.695 1139.67 178.896C1135.18 186.382 1136.07 205.564 1138.71 206.993C1138.81 207.068 1138.9 207.132 1138.97 207.187C1139.2 207.358 1139.3 207.433 1139.4 207.421C1139.51 207.408 1139.69 207.168 1139.84 206.971C1139.9 206.891 1139.95 206.818 1139.99 206.77C1140.85 205.804 1143.08 205.295 1145.92 204.647C1151.61 203.347 1159.76 201.486 1164.27 194.261C1169.76 185.484 1162.33 169.475 1162.33 169.475Z" fill="#88C346"/>
<path d="M1162.33 169.475C1162.33 169.475 1145.18 169.695 1139.67 178.896C1135.18 186.382 1136.07 205.564 1138.71 206.993C1138.81 207.068 1138.9 207.132 1138.97 207.187C1139.2 207.358 1139.3 207.433 1139.4 207.421C1139.51 207.408 1139.69 207.168 1139.84 206.971C1139.9 206.891 1139.95 206.818 1139.99 206.77C1140.85 205.804 1143.08 205.295 1145.92 204.647C1151.61 203.347 1159.76 201.486 1164.27 194.261C1169.76 185.484 1162.33 169.475 1162.33 169.475Z" stroke="black"/>
<path d="M1240.89 113.554C1240.89 113.554 1265.29 117.394 1274.94 105.786C1282.79 96.3414 1285.3 69.1455 1281.83 66.4969C1281.7 66.3668 1281.59 66.255 1281.5 66.1603C1281.21 65.8659 1281.08 65.7358 1280.94 65.7279C1280.77 65.7187 1280.47 66.0127 1280.22 66.255C1280.12 66.3528 1280.03 66.4421 1279.96 66.4997C1278.55 67.651 1275.29 67.8274 1271.12 68.0523C1262.78 68.5029 1250.84 69.1481 1243.01 78.2187C1233.49 89.2381 1240.89 113.554 1240.89 113.554Z" fill="#A7C841"/>
<path d="M1240.89 113.554C1240.89 113.554 1265.29 117.394 1274.94 105.786C1282.79 96.3414 1285.3 69.1455 1281.83 66.4969C1281.7 66.3668 1281.59 66.255 1281.5 66.1603C1281.21 65.8659 1281.08 65.7358 1280.94 65.7279C1280.77 65.7187 1280.47 66.0127 1280.22 66.255C1280.12 66.3528 1280.03 66.4421 1279.96 66.4997C1278.55 67.651 1275.29 67.8274 1271.12 68.0523C1262.78 68.5029 1250.84 69.1481 1243.01 78.2187C1233.49 89.2381 1240.89 113.554 1240.89 113.554Z" stroke="black"/>
<path d="M1271.35 118.544C1271.35 118.544 1277.1 139.982 1291.15 144.955C1302.58 149.002 1327.92 143.848 1328.99 140.239C1329.06 140.095 1329.12 139.974 1329.17 139.871C1329.32 139.553 1329.39 139.412 1329.34 139.289C1329.29 139.146 1328.91 138.973 1328.6 138.83C1328.48 138.773 1328.36 138.721 1328.28 138.677C1326.72 137.806 1325.33 135.121 1323.56 131.698C1320.01 124.839 1314.93 115.017 1303.85 110.885C1290.38 105.866 1271.35 118.544 1271.35 118.544Z" fill="#6CBB0D"/>
<path d="M1271.35 118.544C1271.35 118.544 1277.1 139.982 1291.15 144.955C1302.58 149.002 1327.92 143.848 1328.99 140.239C1329.06 140.095 1329.12 139.974 1329.17 139.871C1329.32 139.553 1329.39 139.412 1329.34 139.289C1329.29 139.146 1328.91 138.973 1328.6 138.83C1328.48 138.773 1328.36 138.721 1328.28 138.677C1326.72 137.806 1325.33 135.121 1323.56 131.698C1320.01 124.839 1314.93 115.017 1303.85 110.885C1290.38 105.866 1271.35 118.544 1271.35 118.544Z" stroke="black"/>
<path d="M1144.69 113.841C1144.69 113.841 1149.42 98.3429 1142.65 89.5105C1137.13 82.3239 1119.43 75.0399 1117.37 76.81C1117.28 76.8709 1117.19 76.9205 1117.12 76.9625C1116.9 77.0932 1116.8 77.151 1116.79 77.2462C1116.77 77.3566 1116.93 77.6176 1117.07 77.8328C1117.12 77.9196 1117.18 77.9989 1117.21 78.0579C1117.84 79.2352 1117.66 81.4517 1117.43 84.2776C1116.97 89.9395 1116.32 98.0477 1121.59 105.146C1127.99 113.769 1144.69 113.841 1144.69 113.841Z" fill="#88C346"/>
<path d="M1144.69 113.841C1144.69 113.841 1149.42 98.3429 1142.65 89.5105C1137.13 82.3239 1119.43 75.0399 1117.37 76.81C1117.28 76.8709 1117.19 76.9205 1117.12 76.9625C1116.9 77.0932 1116.8 77.151 1116.79 77.2462C1116.77 77.3566 1116.93 77.6176 1117.07 77.8328C1117.12 77.9196 1117.18 77.9989 1117.21 78.0579C1117.84 79.2352 1117.66 81.4517 1117.43 84.2776C1116.97 89.9395 1116.32 98.0477 1121.59 105.146C1127.99 113.769 1144.69 113.841 1144.69 113.841Z" stroke="black"/>
<path d="M1220.8 91.0674C1220.8 91.0674 1241.79 78.0343 1241.5 62.9447C1241.28 50.6669 1225.41 28.4346 1221.06 28.6958L1220.41 28.6958L1218.72 29.4677C1218.48 29.7518 1217.94 30.2473 1217.19 30.9368C1212.47 35.2977 1199.32 47.4215 1199.32 62.9331C1199.32 77.491 1220.8 91.0674 1220.8 91.0674Z" fill="#6CBB0D"/>
<path d="M1220.8 91.0674C1220.8 91.0674 1241.79 78.0343 1241.5 62.9447C1241.28 50.6669 1225.41 28.4346 1221.06 28.6958L1220.41 28.6958L1218.72 29.4677C1218.48 29.7518 1217.94 30.2473 1217.19 30.9368C1212.47 35.2977 1199.32 47.4215 1199.32 62.9331C1199.32 77.491 1220.8 91.0674 1220.8 91.0674Z" stroke="black"/>
<path d="M1244.09 175.976C1244.09 175.976 1236.76 188.201 1240.74 196.897C1243.98 203.973 1257.67 213.353 1259.81 212.234L1260.14 212.09L1260.8 211.267C1260.85 211.049 1261 210.642 1261.2 210.075C1262.49 206.495 1266.07 196.539 1262.13 187.535C1258.43 179.084 1244.09 175.976 1244.09 175.976Z" fill="#6CBB0D"/>
<path d="M1244.09 175.976C1244.09 175.976 1236.76 188.201 1240.74 196.897C1243.98 203.973 1257.67 213.353 1259.81 212.234L1260.14 212.09L1260.8 211.267C1260.85 211.049 1261 210.642 1261.2 210.075C1262.49 206.495 1266.07 196.539 1262.13 187.535C1258.43 179.084 1244.09 175.976 1244.09 175.976Z" stroke="black"/>
<path d="M1216.19 258.188V205.875M1216.19 115.594V179.719M1216.19 179.719L1251.62 154.406V135M1216.19 179.719V205.875M1216.19 205.875L1177.38 179.719V154.406" stroke="black" stroke-width="11.8125"/>
<circle cx="1216.19" cy="108" r="10.125" fill="black"/>
<circle cx="1177.38" cy="148.5" r="10.125" fill="black"/>
<circle cx="1251.62" cy="128.25" r="10.125" fill="black"/>
<circle cx="1251.62" cy="128.25" r="5.0625" fill="#D9D9D9"/>
<circle cx="1216.19" cy="258.188" r="10.125" fill="black"/>
<circle cx="1177.38" cy="148.5" r="5.0625" fill="#D9D9D9"/>
<path d="M1221.25 258.188C1221.25 260.983 1218.98 263.25 1216.19 263.25C1213.39 263.25 1211.12 260.983 1211.12 258.188C1211.12 255.392 1213.39 253.125 1216.19 253.125C1218.98 253.125 1221.25 255.392 1221.25 258.188Z" fill="#D9D9D9"/>
<path d="M1221.25 108C1221.25 110.796 1218.98 113.062 1216.19 113.062C1213.39 113.062 1211.12 110.796 1211.12 108C1211.12 105.204 1213.39 102.938 1216.19 102.938C1218.98 102.938 1221.25 105.204 1221.25 108Z" fill="#D9D9D9"/>
</g>
<defs>
<clipPath id="clip0_3_61">
<path d="M1066 0H1348C1356.28 0 1363 6.71573 1363 15V282C1363 290.284 1356.28 297 1348 297H1066V0Z" fill="white"/>
</clipPath>
</defs>
</svg>
